<?xml version="1.0" encoding="UTF-8" standalone="no"?>
<!DOCTYPE svg PUBLIC "-//W3C//DTD SVG 1.1//EN"
 "http://www.w3.org/Graphics/SVG/1.1/DTD/svg11.dtd">
<!-- Generated by graphviz version 2.40.1 (20161225.0304)
 -->
<!-- Title: state transitions Pages: 1 -->
<svg width="697pt" height="1958pt"
 viewBox="0.00 0.00 697.00 1958.00" xmlns="http://www.w3.org/2000/svg" xmlns:xlink="http://www.w3.org/1999/xlink">
<g id="graph0" class="graph" transform="scale(1 1) rotate(0) translate(4 1954)">
<title>state transitions</title>
<polygon fill="#ffffff" stroke="transparent" points="-4,4 -4,-1954 693,-1954 693,4 -4,4"/>
<g id="clust1" class="cluster state regular">
<title>cluster_state</title>
<path fill="none" stroke="#000000" stroke-width="2" d="M20,-8C20,-8 669,-8 669,-8 675,-8 681,-14 681,-20 681,-20 681,-1930 681,-1930 681,-1936 675,-1942 669,-1942 669,-1942 20,-1942 20,-1942 14,-1942 8,-1936 8,-1930 8,-1930 8,-20 8,-20 8,-14 14,-8 20,-8"/>
<text text-anchor="start" x="331.4944" y="-1923.2" font-family="Helvetica,sans-Serif" font-size="12.00" fill="#000000">state</text>
</g>
<!-- state -->
<!-- IDLE_state -->
<g id="node2" class="node state regular">
<title>IDLE_state</title>
<polygon fill="#ffffff" fill-opacity="0.003922" stroke="transparent" stroke-width="2" points="393.5,-1904 312.5,-1904 312.5,-1868 393.5,-1868 393.5,-1904"/>
<text text-anchor="start" x="323.8234" y="-1882.2" font-family="Helvetica,sans-Serif" font-size="12.00" fill="#000000">IDLE_state</text>
<path fill="none" stroke="#000000" stroke-width="2" d="M324.8333,-1869C324.8333,-1869 381.1667,-1869 381.1667,-1869 386.8333,-1869 392.5,-1874.6667 392.5,-1880.3333 392.5,-1880.3333 392.5,-1891.6667 392.5,-1891.6667 392.5,-1897.3333 386.8333,-1903 381.1667,-1903 381.1667,-1903 324.8333,-1903 324.8333,-1903 319.1667,-1903 313.5,-1897.3333 313.5,-1891.6667 313.5,-1891.6667 313.5,-1880.3333 313.5,-1880.3333 313.5,-1874.6667 319.1667,-1869 324.8333,-1869"/>
</g>
<!-- HEAD_state -->
<g id="node3" class="node state regular">
<title>HEAD_state</title>
<polygon fill="#ffffff" fill-opacity="0.003922" stroke="transparent" stroke-width="2" points="307,-1822 219,-1822 219,-1786 307,-1786 307,-1822"/>
<text text-anchor="start" x="229.9934" y="-1800.2" font-family="Helvetica,sans-Serif" font-size="12.00" fill="#000000">HEAD_state</text>
<path fill="none" stroke="#000000" stroke-width="2" d="M231.3333,-1787C231.3333,-1787 294.6667,-1787 294.6667,-1787 300.3333,-1787 306,-1792.6667 306,-1798.3333 306,-1798.3333 306,-1809.6667 306,-1809.6667 306,-1815.3333 300.3333,-1821 294.6667,-1821 294.6667,-1821 231.3333,-1821 231.3333,-1821 225.6667,-1821 220,-1815.3333 220,-1809.6667 220,-1809.6667 220,-1798.3333 220,-1798.3333 220,-1792.6667 225.6667,-1787 231.3333,-1787"/>
</g>
<!-- IDLE_state&#45;&gt;HEAD_state -->
<g id="edge1" class="edge transition">
<title>IDLE_state&#45;&gt;HEAD_state</title>
<path fill="none" stroke="#000000" d="M315.4396,-1867.8596C307.4791,-1863.0324 299.4922,-1857.3628 292.876,-1851 286.8979,-1845.2509 281.5716,-1838.0775 277.1316,-1831.0798"/>
<polygon fill="#000000" stroke="#000000" points="280.1122,-1829.2442 271.9991,-1822.4304 274.0923,-1832.8164 280.1122,-1829.2442"/>
<text text-anchor="start" x="292" y="-1842" font-family="Helvetica,sans-Serif" font-size="10.00" fill="#000000">trigger_i = &#39;1&#39; or debug_packet_inject_i = &#39;1&#39; &#160;&#160;</text>
</g>
<!-- STATUS_state -->
<g id="node4" class="node state regular">
<title>STATUS_state</title>
<polygon fill="#ffffff" fill-opacity="0.003922" stroke="transparent" stroke-width="2" points="308,-1740 206,-1740 206,-1704 308,-1704 308,-1740"/>
<text text-anchor="start" x="216.9926" y="-1718.2" font-family="Helvetica,sans-Serif" font-size="12.00" fill="#000000">STATUS_state</text>
<path fill="none" stroke="#000000" stroke-width="2" d="M218.3333,-1705C218.3333,-1705 295.6667,-1705 295.6667,-1705 301.3333,-1705 307,-1710.6667 307,-1716.3333 307,-1716.3333 307,-1727.6667 307,-1727.6667 307,-1733.3333 301.3333,-1739 295.6667,-1739 295.6667,-1739 218.3333,-1739 218.3333,-1739 212.6667,-1739 207,-1733.3333 207,-1727.6667 207,-1727.6667 207,-1716.3333 207,-1716.3333 207,-1710.6667 212.6667,-1705 218.3333,-1705"/>
</g>
<!-- HEAD_state&#45;&gt;STATUS_state -->
<g id="edge2" class="edge transition">
<title>HEAD_state&#45;&gt;STATUS_state</title>
<path fill="none" stroke="#000000" d="M261.6684,-1785.8015C260.9071,-1775.3976 259.9357,-1762.1215 259.0763,-1750.3768"/>
<polygon fill="#000000" stroke="#000000" points="262.5484,-1749.8655 258.3279,-1740.1476 255.5671,-1750.3764 262.5484,-1749.8655"/>
<text text-anchor="middle" x="261.3895" y="-1760" font-family="Helvetica,sans-Serif" font-size="10.00" fill="#000000"> </text>
</g>
<!-- LENGTH_state -->
<g id="node5" class="node state regular">
<title>LENGTH_state</title>
<polygon fill="#ffffff" fill-opacity="0.003922" stroke="transparent" stroke-width="2" points="304.5,-1658 201.5,-1658 201.5,-1622 304.5,-1622 304.5,-1658"/>
<text text-anchor="start" x="212.8266" y="-1636.2" font-family="Helvetica,sans-Serif" font-size="12.00" fill="#000000">LENGTH_state</text>
<path fill="none" stroke="#000000" stroke-width="2" d="M213.8333,-1623C213.8333,-1623 292.1667,-1623 292.1667,-1623 297.8333,-1623 303.5,-1628.6667 303.5,-1634.3333 303.5,-1634.3333 303.5,-1645.6667 303.5,-1645.6667 303.5,-1651.3333 297.8333,-1657 292.1667,-1657 292.1667,-1657 213.8333,-1657 213.8333,-1657 208.1667,-1657 202.5,-1651.3333 202.5,-1645.6667 202.5,-1645.6667 202.5,-1634.3333 202.5,-1634.3333 202.5,-1628.6667 208.1667,-1623 213.8333,-1623"/>
</g>
<!-- STATUS_state&#45;&gt;LENGTH_state -->
<g id="edge3" class="edge transition">
<title>STATUS_state&#45;&gt;LENGTH_state</title>
<path fill="none" stroke="#000000" d="M256.1123,-1703.8015C255.6048,-1693.3976 254.9571,-1680.1215 254.3842,-1668.3768"/>
<polygon fill="#000000" stroke="#000000" points="257.8684,-1667.9651 253.8852,-1658.1476 250.8767,-1668.3063 257.8684,-1667.9651"/>
<text text-anchor="middle" x="256.3895" y="-1678" font-family="Helvetica,sans-Serif" font-size="10.00" fill="#000000"> </text>
</g>
<!-- ROI_state -->
<g id="node6" class="node state regular">
<title>ROI_state</title>
<polygon fill="#ffffff" fill-opacity="0.003922" stroke="transparent" stroke-width="2" points="291,-1576 215,-1576 215,-1540 291,-1540 291,-1576"/>
<text text-anchor="start" x="225.9928" y="-1554.2" font-family="Helvetica,sans-Serif" font-size="12.00" fill="#000000">ROI_state</text>
<path fill="none" stroke="#000000" stroke-width="2" d="M227.3333,-1541C227.3333,-1541 278.6667,-1541 278.6667,-1541 284.3333,-1541 290,-1546.6667 290,-1552.3333 290,-1552.3333 290,-1563.6667 290,-1563.6667 290,-1569.3333 284.3333,-1575 278.6667,-1575 278.6667,-1575 227.3333,-1575 227.3333,-1575 221.6667,-1575 216,-1569.3333 216,-1563.6667 216,-1563.6667 216,-1552.3333 216,-1552.3333 216,-1546.6667 221.6667,-1541 227.3333,-1541"/>
</g>
<!-- LENGTH_state&#45;&gt;ROI_state -->
<g id="edge4" class="edge transition">
<title>LENGTH_state&#45;&gt;ROI_state</title>
<path fill="none" stroke="#000000" d="M253,-1621.8015C253,-1611.3976 253,-1598.1215 253,-1586.3768"/>
<polygon fill="#000000" stroke="#000000" points="256.5001,-1586.1476 253,-1576.1476 249.5001,-1586.1476 256.5001,-1586.1476"/>
<text text-anchor="middle" x="254.3895" y="-1596" font-family="Helvetica,sans-Serif" font-size="10.00" fill="#000000"> </text>
</g>
<!-- DNA_state -->
<g id="node7" class="node state regular">
<title>DNA_state</title>
<polygon fill="#ffffff" fill-opacity="0.003922" stroke="transparent" stroke-width="2" points="291,-1494 211,-1494 211,-1458 291,-1458 291,-1494"/>
<text text-anchor="start" x="221.9948" y="-1472.2" font-family="Helvetica,sans-Serif" font-size="12.00" fill="#000000">DNA_state</text>
<path fill="none" stroke="#000000" stroke-width="2" d="M223.3333,-1459C223.3333,-1459 278.6667,-1459 278.6667,-1459 284.3333,-1459 290,-1464.6667 290,-1470.3333 290,-1470.3333 290,-1481.6667 290,-1481.6667 290,-1487.3333 284.3333,-1493 278.6667,-1493 278.6667,-1493 223.3333,-1493 223.3333,-1493 217.6667,-1493 212,-1487.3333 212,-1481.6667 212,-1481.6667 212,-1470.3333 212,-1470.3333 212,-1464.6667 217.6667,-1459 223.3333,-1459"/>
</g>
<!-- ROI_state&#45;&gt;DNA_state -->
<g id="edge5" class="edge transition">
<title>ROI_state&#45;&gt;DNA_state</title>
<path fill="none" stroke="#000000" d="M252.5561,-1539.8015C252.3024,-1529.3976 251.9786,-1516.1215 251.6921,-1504.3768"/>
<polygon fill="#000000" stroke="#000000" points="255.1855,-1504.0592 251.4426,-1494.1476 248.1876,-1504.23 255.1855,-1504.0592"/>
<text text-anchor="middle" x="253.3895" y="-1514" font-family="Helvetica,sans-Serif" font-size="10.00" fill="#000000"> </text>
</g>
<!-- HASH_state -->
<g id="node8" class="node state regular">
<title>HASH_state</title>
<polygon fill="#ffffff" fill-opacity="0.003922" stroke="transparent" stroke-width="2" points="294,-1412 206,-1412 206,-1376 294,-1376 294,-1412"/>
<text text-anchor="start" x="216.9934" y="-1390.2" font-family="Helvetica,sans-Serif" font-size="12.00" fill="#000000">HASH_state</text>
<path fill="none" stroke="#000000" stroke-width="2" d="M218.3333,-1377C218.3333,-1377 281.6667,-1377 281.6667,-1377 287.3333,-1377 293,-1382.6667 293,-1388.3333 293,-1388.3333 293,-1399.6667 293,-1399.6667 293,-1405.3333 287.3333,-1411 281.6667,-1411 281.6667,-1411 218.3333,-1411 218.3333,-1411 212.6667,-1411 207,-1405.3333 207,-1399.6667 207,-1399.6667 207,-1388.3333 207,-1388.3333 207,-1382.6667 212.6667,-1377 218.3333,-1377"/>
</g>
<!-- DNA_state&#45;&gt;HASH_state -->
<g id="edge6" class="edge transition">
<title>DNA_state&#45;&gt;HASH_state</title>
<path fill="none" stroke="#000000" d="M250.7781,-1457.8015C250.6512,-1447.3976 250.4893,-1434.1215 250.3461,-1422.3768"/>
<polygon fill="#000000" stroke="#000000" points="253.8431,-1422.1041 250.2213,-1412.1476 246.8436,-1422.1896 253.8431,-1422.1041"/>
<text text-anchor="start" x="250" y="-1432" font-family="Helvetica,sans-Serif" font-size="10.00" fill="#000000">state_word_cnt = dna&#39;length / g_WORD_SIZE &#45; 1 &#160;&#160;</text>
</g>
<!-- ID_state -->
<g id="node9" class="node state regular">
<title>ID_state</title>
<polygon fill="#ffffff" fill-opacity="0.003922" stroke="transparent" stroke-width="2" points="283,-1330 217,-1330 217,-1294 283,-1294 283,-1330"/>
<text text-anchor="start" x="227.6602" y="-1308.2" font-family="Helvetica,sans-Serif" font-size="12.00" fill="#000000">ID_state</text>
<path fill="none" stroke="#000000" stroke-width="2" d="M229.3333,-1295C229.3333,-1295 270.6667,-1295 270.6667,-1295 276.3333,-1295 282,-1300.6667 282,-1306.3333 282,-1306.3333 282,-1317.6667 282,-1317.6667 282,-1323.3333 276.3333,-1329 270.6667,-1329 270.6667,-1329 229.3333,-1329 229.3333,-1329 223.6667,-1329 218,-1323.3333 218,-1317.6667 218,-1317.6667 218,-1306.3333 218,-1306.3333 218,-1300.6667 223.6667,-1295 229.3333,-1295"/>
</g>
<!-- HASH_state&#45;&gt;ID_state -->
<g id="edge7" class="edge transition">
<title>HASH_state&#45;&gt;ID_state</title>
<path fill="none" stroke="#000000" d="M250,-1375.8015C250,-1365.3976 250,-1352.1215 250,-1340.3768"/>
<polygon fill="#000000" stroke="#000000" points="253.5001,-1340.1476 250,-1330.1476 246.5001,-1340.1476 253.5001,-1340.1476"/>
<text text-anchor="middle" x="251.3895" y="-1350" font-family="Helvetica,sans-Serif" font-size="10.00" fill="#000000"> </text>
</g>
<!-- CHMASK_state -->
<g id="node10" class="node state regular">
<title>CHMASK_state</title>
<polygon fill="#ffffff" fill-opacity="0.003922" stroke="transparent" stroke-width="2" points="303,-1248 197,-1248 197,-1212 303,-1212 303,-1248"/>
<text text-anchor="start" x="207.9946" y="-1226.2" font-family="Helvetica,sans-Serif" font-size="12.00" fill="#000000">CHMASK_state</text>
<path fill="none" stroke="#000000" stroke-width="2" d="M209.3333,-1213C209.3333,-1213 290.6667,-1213 290.6667,-1213 296.3333,-1213 302,-1218.6667 302,-1224.3333 302,-1224.3333 302,-1235.6667 302,-1235.6667 302,-1241.3333 296.3333,-1247 290.6667,-1247 290.6667,-1247 209.3333,-1247 209.3333,-1247 203.6667,-1247 198,-1241.3333 198,-1235.6667 198,-1235.6667 198,-1224.3333 198,-1224.3333 198,-1218.6667 203.6667,-1213 209.3333,-1213"/>
</g>
<!-- ID_state&#45;&gt;CHMASK_state -->
<g id="edge8" class="edge transition">
<title>ID_state&#45;&gt;CHMASK_state</title>
<path fill="none" stroke="#000000" d="M250,-1293.8015C250,-1283.3976 250,-1270.1215 250,-1258.3768"/>
<polygon fill="#000000" stroke="#000000" points="253.5001,-1258.1476 250,-1248.1476 246.5001,-1258.1476 253.5001,-1258.1476"/>
<text text-anchor="middle" x="251.3895" y="-1268" font-family="Helvetica,sans-Serif" font-size="10.00" fill="#000000"> </text>
</g>
<!-- WAIT_EVENT_CNT_state -->
<g id="node11" class="node state regular">
<title>WAIT_EVENT_CNT_state</title>
<polygon fill="#ffffff" fill-opacity="0.003922" stroke="transparent" stroke-width="2" points="240,-1166 78,-1166 78,-1130 240,-1130 240,-1166"/>
<text text-anchor="start" x="88.6614" y="-1144.2" font-family="Helvetica,sans-Serif" font-size="12.00" fill="#000000">WAIT_EVENT_CNT_state</text>
<path fill="none" stroke="#000000" stroke-width="2" d="M90.3333,-1131C90.3333,-1131 227.6667,-1131 227.6667,-1131 233.3333,-1131 239,-1136.6667 239,-1142.3333 239,-1142.3333 239,-1153.6667 239,-1153.6667 239,-1159.3333 233.3333,-1165 227.6667,-1165 227.6667,-1165 90.3333,-1165 90.3333,-1165 84.6667,-1165 79,-1159.3333 79,-1153.6667 79,-1153.6667 79,-1142.3333 79,-1142.3333 79,-1136.6667 84.6667,-1131 90.3333,-1131"/>
</g>
<!-- CHMASK_state&#45;&gt;WAIT_EVENT_CNT_state -->
<g id="edge9" class="edge transition">
<title>CHMASK_state&#45;&gt;WAIT_EVENT_CNT_state</title>
<path fill="none" stroke="#000000" d="M201.5024,-1211.8487C193.3332,-1207.2504 185.4667,-1201.6729 179.144,-1195 174.0569,-1189.6311 170.1475,-1182.7789 167.1879,-1175.9775"/>
<polygon fill="#000000" stroke="#000000" points="170.3129,-1174.3456 163.5049,-1166.2276 163.7645,-1176.8193 170.3129,-1174.3456"/>
<text text-anchor="start" x="179" y="-1186" font-family="Helvetica,sans-Serif" font-size="10.00" fill="#000000">gfp_use_eventid_i = &#39;1&#39; &#160;&#160;</text>
</g>
<!-- EVENT_CNT_state -->
<g id="node12" class="node state regular">
<title>EVENT_CNT_state</title>
<polygon fill="#ffffff" fill-opacity="0.003922" stroke="transparent" stroke-width="2" points="286,-1084 160,-1084 160,-1048 286,-1048 286,-1084"/>
<text text-anchor="start" x="170.9944" y="-1062.2" font-family="Helvetica,sans-Serif" font-size="12.00" fill="#000000">EVENT_CNT_state</text>
<path fill="none" stroke="#000000" stroke-width="2" d="M172.3333,-1049C172.3333,-1049 273.6667,-1049 273.6667,-1049 279.3333,-1049 285,-1054.6667 285,-1060.3333 285,-1060.3333 285,-1071.6667 285,-1071.6667 285,-1077.3333 279.3333,-1083 273.6667,-1083 273.6667,-1083 172.3333,-1083 172.3333,-1083 166.6667,-1083 161,-1077.3333 161,-1071.6667 161,-1071.6667 161,-1060.3333 161,-1060.3333 161,-1054.6667 166.6667,-1049 172.3333,-1049"/>
</g>
<!-- CHMASK_state&#45;&gt;EVENT_CNT_state -->
<g id="edge10" class="edge transition">
<title>CHMASK_state&#45;&gt;EVENT_CNT_state</title>
<path fill="none" stroke="#000000" d="M283.914,-1211.9435C290.8087,-1205.846 296,-1198.2002 296,-1189 296,-1189 296,-1189 296,-1107 296,-1100.9132 294.0468,-1095.7206 290.7793,-1091.2926"/>
<polygon fill="#000000" stroke="#000000" points="293.1594,-1088.7228 283.6165,-1084.12 288.2062,-1093.6692 293.1594,-1088.7228"/>
<text text-anchor="start" x="296" y="-1145" font-family="Helvetica,sans-Serif" font-size="10.00" fill="#000000">not (gfp_use_eventid_i = &#39;1&#39;) &#160;&#160;</text>
</g>
<!-- WAIT_EVENT_CNT_state&#45;&gt;EVENT_CNT_state -->
<g id="edge11" class="edge transition">
<title>WAIT_EVENT_CNT_state&#45;&gt;EVENT_CNT_state</title>
<path fill="none" stroke="#000000" d="M162.3006,-1129.8042C164.6381,-1120.5328 168.4962,-1109.4619 174.706,-1101 177.3977,-1097.3321 180.5881,-1093.8922 184.0266,-1090.7102"/>
<polygon fill="#000000" stroke="#000000" points="186.4257,-1093.2665 191.8534,-1084.1675 181.9362,-1087.8958 186.4257,-1093.2665"/>
<text text-anchor="start" x="174" y="-1104" font-family="Helvetica,sans-Serif" font-size="10.00" fill="#000000">gfp_eventid_valid_i = &#39;1&#39; &#160;&#160;</text>
</g>
<!-- DTAP0_state -->
<g id="node13" class="node state regular">
<title>DTAP0_state</title>
<polygon fill="#ffffff" fill-opacity="0.003922" stroke="transparent" stroke-width="2" points="342.5,-1002 249.5,-1002 249.5,-966 342.5,-966 342.5,-1002"/>
<text text-anchor="start" x="260.824" y="-980.2" font-family="Helvetica,sans-Serif" font-size="12.00" fill="#000000">DTAP0_state</text>
<path fill="none" stroke="#000000" stroke-width="2" d="M261.8333,-967C261.8333,-967 330.1667,-967 330.1667,-967 335.8333,-967 341.5,-972.6667 341.5,-978.3333 341.5,-978.3333 341.5,-989.6667 341.5,-989.6667 341.5,-995.3333 335.8333,-1001 330.1667,-1001 330.1667,-1001 261.8333,-1001 261.8333,-1001 256.1667,-1001 250.5,-995.3333 250.5,-989.6667 250.5,-989.6667 250.5,-978.3333 250.5,-978.3333 250.5,-972.6667 256.1667,-967 261.8333,-967"/>
</g>
<!-- EVENT_CNT_state&#45;&gt;DTAP0_state -->
<g id="edge12" class="edge transition">
<title>EVENT_CNT_state&#45;&gt;DTAP0_state</title>
<path fill="none" stroke="#000000" d="M226.7806,-1047.6224C229.3979,-1038.3013 233.647,-1027.2407 240.33,-1019 243.5288,-1015.0556 247.2969,-1011.4251 251.3398,-1008.1187"/>
<polygon fill="#000000" stroke="#000000" points="253.4264,-1010.9287 259.3759,-1002.1621 249.258,-1005.3051 253.4264,-1010.9287"/>
<text text-anchor="start" x="240" y="-1022" font-family="Helvetica,sans-Serif" font-size="10.00" fill="#000000">state_word_cnt = event_cnt&#39;length / g_WORD_SIZE &#45; 1 &#160;&#160;</text>
</g>
<!-- DTAP1_state -->
<g id="node14" class="node state regular">
<title>DTAP1_state</title>
<polygon fill="#ffffff" fill-opacity="0.003922" stroke="transparent" stroke-width="2" points="352.5,-920 259.5,-920 259.5,-884 352.5,-884 352.5,-920"/>
<text text-anchor="start" x="270.824" y="-898.2" font-family="Helvetica,sans-Serif" font-size="12.00" fill="#000000">DTAP1_state</text>
<path fill="none" stroke="#000000" stroke-width="2" d="M271.8333,-885C271.8333,-885 340.1667,-885 340.1667,-885 345.8333,-885 351.5,-890.6667 351.5,-896.3333 351.5,-896.3333 351.5,-907.6667 351.5,-907.6667 351.5,-913.3333 345.8333,-919 340.1667,-919 340.1667,-919 271.8333,-919 271.8333,-919 266.1667,-919 260.5,-913.3333 260.5,-907.6667 260.5,-907.6667 260.5,-896.3333 260.5,-896.3333 260.5,-890.6667 266.1667,-885 271.8333,-885"/>
</g>
<!-- DTAP0_state&#45;&gt;DTAP1_state -->
<g id="edge13" class="edge transition">
<title>DTAP0_state&#45;&gt;DTAP1_state</title>
<path fill="none" stroke="#000000" d="M298.2193,-965.8015C299.4881,-955.3976 301.1071,-942.1215 302.5394,-930.3768"/>
<polygon fill="#000000" stroke="#000000" points="306.0505,-930.4978 303.7869,-920.1476 299.102,-929.6503 306.0505,-930.4978"/>
<text text-anchor="middle" x="302.3895" y="-940" font-family="Helvetica,sans-Serif" font-size="10.00" fill="#000000"> </text>
</g>
<!-- TIMESTAMP_state -->
<g id="node15" class="node state regular">
<title>TIMESTAMP_state</title>
<polygon fill="#ffffff" fill-opacity="0.003922" stroke="transparent" stroke-width="2" points="413,-838 289,-838 289,-802 413,-802 413,-838"/>
<text text-anchor="start" x="299.6604" y="-816.2" font-family="Helvetica,sans-Serif" font-size="12.00" fill="#000000">TIMESTAMP_state</text>
<path fill="none" stroke="#000000" stroke-width="2" d="M301.3333,-803C301.3333,-803 400.6667,-803 400.6667,-803 406.3333,-803 412,-808.6667 412,-814.3333 412,-814.3333 412,-825.6667 412,-825.6667 412,-831.3333 406.3333,-837 400.6667,-837 400.6667,-837 301.3333,-837 301.3333,-837 295.6667,-837 290,-831.3333 290,-825.6667 290,-825.6667 290,-814.3333 290,-814.3333 290,-808.6667 295.6667,-803 301.3333,-803"/>
</g>
<!-- DTAP1_state&#45;&gt;TIMESTAMP_state -->
<g id="edge14" class="edge transition">
<title>DTAP1_state&#45;&gt;TIMESTAMP_state</title>
<path fill="none" stroke="#000000" d="M315.987,-883.8015C321.9295,-872.973 329.5795,-859.033 336.2122,-846.9466"/>
<polygon fill="#000000" stroke="#000000" points="339.2983,-848.5981 341.041,-838.1476 333.1616,-845.2304 339.2983,-848.5981"/>
<text text-anchor="middle" x="332.3895" y="-858" font-family="Helvetica,sans-Serif" font-size="10.00" fill="#000000"> </text>
</g>
<!-- CH_HEADER_state -->
<g id="node16" class="node state regular">
<title>CH_HEADER_state</title>
<polygon fill="#ffffff" fill-opacity="0.003922" stroke="transparent" stroke-width="2" points="415,-744 287,-744 287,-708 415,-708 415,-744"/>
<text text-anchor="start" x="297.6624" y="-722.2" font-family="Helvetica,sans-Serif" font-size="12.00" fill="#000000">CH_HEADER_state</text>
<path fill="none" stroke="#000000" stroke-width="2" d="M299.3333,-709C299.3333,-709 402.6667,-709 402.6667,-709 408.3333,-709 414,-714.6667 414,-720.3333 414,-720.3333 414,-731.6667 414,-731.6667 414,-737.3333 408.3333,-743 402.6667,-743 402.6667,-743 299.3333,-743 299.3333,-743 293.6667,-743 288,-737.3333 288,-731.6667 288,-731.6667 288,-720.3333 288,-720.3333 288,-714.6667 293.6667,-709 299.3333,-709"/>
</g>
<!-- TIMESTAMP_state&#45;&gt;CH_HEADER_state -->
<g id="edge16" class="edge transition">
<title>TIMESTAMP_state&#45;&gt;CH_HEADER_state</title>
<path fill="none" stroke="#000000" d="M351,-801.8759C351,-788.3516 351,-769.6192 351,-754.1514"/>
<polygon fill="#000000" stroke="#000000" points="354.5001,-754.0685 351,-744.0685 347.5001,-754.0685 354.5001,-754.0685"/>
<text text-anchor="start" x="351" y="-776" font-family="Helvetica,sans-Serif" font-size="10.00" fill="#000000">state_word_cnt = timestamp&#39;length / g_WORD_SIZE &#45; 1 &#160;&#160;</text>
<text text-anchor="start" x="351" y="-764" font-family="Helvetica,sans-Serif" font-size="10.00" fill="#000000">not (dropped = &#39;1&#39;) &#160;&#160;</text>
</g>
<!-- CRC32_state -->
<g id="node22" class="node state regular">
<title>CRC32_state</title>
<polygon fill="#ffffff" fill-opacity="0.003922" stroke="transparent" stroke-width="2" points="468,-216 374,-216 374,-180 468,-180 468,-216"/>
<text text-anchor="start" x="384.994" y="-194.2" font-family="Helvetica,sans-Serif" font-size="12.00" fill="#000000">CRC32_state</text>
<path fill="none" stroke="#000000" stroke-width="2" d="M386.3333,-181C386.3333,-181 455.6667,-181 455.6667,-181 461.3333,-181 467,-186.6667 467,-192.3333 467,-192.3333 467,-203.6667 467,-203.6667 467,-209.3333 461.3333,-215 455.6667,-215 455.6667,-215 386.3333,-215 386.3333,-215 380.6667,-215 375,-209.3333 375,-203.6667 375,-203.6667 375,-192.3333 375,-192.3333 375,-186.6667 380.6667,-181 386.3333,-181"/>
</g>
<!-- TIMESTAMP_state&#45;&gt;CRC32_state -->
<g id="edge15" class="edge transition">
<title>TIMESTAMP_state&#45;&gt;CRC32_state</title>
<path fill="none" stroke="#000000" d="M413.2609,-816.2942C500.3509,-810.2604 648,-796.5571 648,-773 648,-773 648,-773 648,-597 648,-537.9023 588.016,-550.8347 532,-532 505.9648,-523.246 427.6084,-535.7151 409.571,-515 372.8102,-472.7821 456.7339,-479.2569 461,-474 473.541,-458.5461 466,-449.4022 466,-429.5 466,-429.5 466,-429.5 466,-239 466,-233.3192 464.0162,-228.2165 460.8817,-223.6995"/>
<polygon fill="#000000" stroke="#000000" points="463.4523,-221.3234 454.1768,-216.2032 458.2348,-225.9901 463.4523,-221.3234"/>
<text text-anchor="start" x="409" y="-506" font-family="Helvetica,sans-Serif" font-size="10.00" fill="#000000">dropped = &#39;1&#39; &#160;&#160;</text>
<text text-anchor="start" x="409" y="-494" font-family="Helvetica,sans-Serif" font-size="10.00" fill="#000000">state_word_cnt = timestamp&#39;length / g_WORD_SIZE &#45; 1 &#160;&#160;</text>
</g>
<!-- PAYLOAD_state -->
<g id="node17" class="node state regular">
<title>PAYLOAD_state</title>
<polygon fill="#ffffff" fill-opacity="0.003922" stroke="transparent" stroke-width="2" points="406.5,-662 295.5,-662 295.5,-626 406.5,-626 406.5,-662"/>
<text text-anchor="start" x="306.8192" y="-640.2" font-family="Helvetica,sans-Serif" font-size="12.00" fill="#000000">PAYLOAD_state</text>
<path fill="none" stroke="#000000" stroke-width="2" d="M307.8333,-627C307.8333,-627 394.1667,-627 394.1667,-627 399.8333,-627 405.5,-632.6667 405.5,-638.3333 405.5,-638.3333 405.5,-649.6667 405.5,-649.6667 405.5,-655.3333 399.8333,-661 394.1667,-661 394.1667,-661 307.8333,-661 307.8333,-661 302.1667,-661 296.5,-655.3333 296.5,-649.6667 296.5,-649.6667 296.5,-638.3333 296.5,-638.3333 296.5,-632.6667 302.1667,-627 307.8333,-627"/>
</g>
<!-- CH_HEADER_state&#45;&gt;PAYLOAD_state -->
<g id="edge18" class="edge transition">
<title>CH_HEADER_state&#45;&gt;PAYLOAD_state</title>
<path fill="none" stroke="#000000" d="M351,-707.8015C351,-697.3976 351,-684.1215 351,-672.3768"/>
<polygon fill="#000000" stroke="#000000" points="354.5001,-672.1476 351,-662.1476 347.5001,-672.1476 354.5001,-672.1476"/>
<text text-anchor="start" x="351" y="-682" font-family="Helvetica,sans-Serif" font-size="10.00" fill="#000000">not (num_channels = 0) &#160;&#160;</text>
</g>
<!-- CH_HEADER_state&#45;&gt;CRC32_state -->
<g id="edge17" class="edge transition">
<title>CH_HEADER_state&#45;&gt;CRC32_state</title>
<path fill="none" stroke="#000000" d="M415.0064,-722.6252C495.697,-717.4937 624,-706.0281 624,-685 624,-685 624,-685 624,-617.5 624,-593.3717 609.2041,-589.1897 589,-576 543.8703,-546.5382 528.0514,-545.9765 476,-532 452.1115,-525.5856 382.0991,-533.7782 366,-515 357.5086,-505.0955 356.5462,-457.8749 369.687,-438 378.8546,-424.1345 391.0486,-432.5526 403,-421 414.872,-409.5241 421,-405.0119 421,-388.5 421,-388.5 421,-388.5 421,-239 421,-234.9516 421,-230.6784 421,-226.48"/>
<polygon fill="#000000" stroke="#000000" points="424.5001,-226.3687 421,-216.3688 417.5001,-226.3688 424.5001,-226.3687"/>
<text text-anchor="start" x="369" y="-453" font-family="Helvetica,sans-Serif" font-size="10.00" fill="#000000">num_channels = 0 &#160;&#160;</text>
</g>
<!-- CALC_CH_CRC_state -->
<g id="node18" class="node state regular">
<title>CALC_CH_CRC_state</title>
<polygon fill="#ffffff" fill-opacity="0.003922" stroke="transparent" stroke-width="2" points="331.5,-568 188.5,-568 188.5,-532 331.5,-532 331.5,-568"/>
<text text-anchor="start" x="199.8316" y="-546.2" font-family="Helvetica,sans-Serif" font-size="12.00" fill="#000000">CALC_CH_CRC_state</text>
<path fill="none" stroke="#000000" stroke-width="2" d="M200.8333,-533C200.8333,-533 319.1667,-533 319.1667,-533 324.8333,-533 330.5,-538.6667 330.5,-544.3333 330.5,-544.3333 330.5,-555.6667 330.5,-555.6667 330.5,-561.3333 324.8333,-567 319.1667,-567 319.1667,-567 200.8333,-567 200.8333,-567 195.1667,-567 189.5,-561.3333 189.5,-555.6667 189.5,-555.6667 189.5,-544.3333 189.5,-544.3333 189.5,-538.6667 195.1667,-533 200.8333,-533"/>
</g>
<!-- PAYLOAD_state&#45;&gt;CALC_CH_CRC_state -->
<g id="edge20" class="edge transition">
<title>PAYLOAD_state&#45;&gt;CALC_CH_CRC_state</title>
<path fill="none" stroke="#000000" d="M333.4543,-625.8759C319.6063,-611.5713 300.1179,-591.4405 284.6943,-575.5084"/>
<polygon fill="#000000" stroke="#000000" points="286.9621,-572.8189 277.4919,-568.0685 281.9327,-577.6878 286.9621,-572.8189"/>
<text text-anchor="start" x="316" y="-594" font-family="Helvetica,sans-Serif" font-size="10.00" fill="#000000">(debug or drs_valid_i = &#39;1&#39;) and (state_word_cnt = roi_size) &#160;&#160;</text>
</g>
<!-- PAYLOAD_state&#45;&gt;CRC32_state -->
<g id="edge19" class="edge transition">
<title>PAYLOAD_state&#45;&gt;CRC32_state</title>
<path fill="none" stroke="#000000" d="M406.6287,-639.6506C473.4665,-633.8498 578.1577,-622.7028 590,-609 596.9747,-600.9296 596.437,-593.5054 590,-585 520.8852,-493.6765 427.0604,-591.6914 342,-515 311.6278,-487.6161 308,-470.3943 308,-429.5 308,-429.5 308,-429.5 308,-239 308,-225.7454 335.8206,-215.5501 363.8534,-208.6414"/>
<polygon fill="#000000" stroke="#000000" points="364.7901,-212.0169 373.7326,-206.3352 363.1987,-205.2002 364.7901,-212.0169"/>
<text text-anchor="start" x="308" y="-406" font-family="Helvetica,sans-Serif" font-size="10.00" fill="#000000">num_channels = 0 &#160;&#160;</text>
</g>
<!-- CH_CRC_state -->
<g id="node19" class="node state regular">
<title>CH_CRC_state</title>
<polygon fill="#ffffff" fill-opacity="0.003922" stroke="transparent" stroke-width="2" points="120,-474 16,-474 16,-438 120,-438 120,-474"/>
<text text-anchor="start" x="26.6666" y="-452.2" font-family="Helvetica,sans-Serif" font-size="12.00" fill="#000000">CH_CRC_state</text>
<path fill="none" stroke="#000000" stroke-width="2" d="M28.3333,-439C28.3333,-439 107.6667,-439 107.6667,-439 113.3333,-439 119,-444.6667 119,-450.3333 119,-450.3333 119,-461.6667 119,-461.6667 119,-467.3333 113.3333,-473 107.6667,-473 107.6667,-473 28.3333,-473 28.3333,-473 22.6667,-473 17,-467.3333 17,-461.6667 17,-461.6667 17,-450.3333 17,-450.3333 17,-444.6667 22.6667,-439 28.3333,-439"/>
</g>
<!-- CALC_CH_CRC_state&#45;&gt;CH_CRC_state -->
<g id="edge21" class="edge transition">
<title>CALC_CH_CRC_state&#45;&gt;CH_CRC_state</title>
<path fill="none" stroke="#000000" d="M222.9805,-531.8759C191.9034,-516.661 147.3629,-494.8548 113.9993,-478.5205"/>
<polygon fill="#000000" stroke="#000000" points="115.4263,-475.3222 104.9059,-474.0685 112.3483,-481.6092 115.4263,-475.3222"/>
<text text-anchor="middle" x="188.3895" y="-500" font-family="Helvetica,sans-Serif" font-size="10.00" fill="#000000"> </text>
</g>
<!-- CH_CRC_state&#45;&gt;CH_HEADER_state -->
<g id="edge23" class="edge transition">
<title>CH_CRC_state&#45;&gt;CH_HEADER_state</title>
<path fill="none" stroke="#000000" d="M49.8568,-474.0341C43.5389,-482.1766 38,-492.3517 38,-503 38,-685 38,-685 38,-685 38,-708.969 184.1679,-719.3254 276.7312,-723.4806"/>
<polygon fill="#000000" stroke="#000000" points="276.7621,-726.9852 286.9045,-723.9222 277.0657,-719.9918 276.7621,-726.9852"/>
<text text-anchor="start" x="38" y="-600" font-family="Helvetica,sans-Serif" font-size="10.00" fill="#000000">state_word_cnt = CHANNEL_CRC&#39;length / 16 &#45; 1 &#160;&#160;</text>
<text text-anchor="start" x="38" y="-588" font-family="Helvetica,sans-Serif" font-size="10.00" fill="#000000">not (channel_cnt = num_channels) &#160;&#160;</text>
</g>
<!-- STOP_CELL_state -->
<g id="node20" class="node state regular">
<title>STOP_CELL_state</title>
<polygon fill="#ffffff" fill-opacity="0.003922" stroke="transparent" stroke-width="2" points="158,-380 34,-380 34,-344 158,-344 158,-380"/>
<text text-anchor="start" x="44.9844" y="-358.2" font-family="Helvetica,sans-Serif" font-size="12.00" fill="#000000">STOP_CELL_state</text>
<path fill="none" stroke="#000000" stroke-width="2" d="M46.3333,-345C46.3333,-345 145.6667,-345 145.6667,-345 151.3333,-345 157,-350.6667 157,-356.3333 157,-356.3333 157,-367.6667 157,-367.6667 157,-373.3333 151.3333,-379 145.6667,-379 145.6667,-379 46.3333,-379 46.3333,-379 40.6667,-379 35,-373.3333 35,-367.6667 35,-367.6667 35,-356.3333 35,-356.3333 35,-350.6667 40.6667,-345 46.3333,-345"/>
</g>
<!-- CH_CRC_state&#45;&gt;STOP_CELL_state -->
<g id="edge22" class="edge transition">
<title>CH_CRC_state&#45;&gt;STOP_CELL_state</title>
<path fill="none" stroke="#000000" d="M58.2409,-437.7999C53.1781,-425.7942 49.1748,-409.9523 55.135,-397 56.7116,-393.5739 58.8074,-390.3579 61.2193,-387.3709"/>
<polygon fill="#000000" stroke="#000000" points="63.8578,-389.6751 68.203,-380.0123 58.7804,-384.8564 63.8578,-389.6751"/>
<text text-anchor="start" x="55" y="-412" font-family="Helvetica,sans-Serif" font-size="10.00" fill="#000000">channel_cnt = num_channels &#160;&#160;</text>
<text text-anchor="start" x="55" y="-400" font-family="Helvetica,sans-Serif" font-size="10.00" fill="#000000">state_word_cnt = CHANNEL_CRC&#39;length / 16 &#45; 1 &#160;&#160;</text>
</g>
<!-- CALC_CRC32_state -->
<g id="node21" class="node state regular">
<title>CALC_CRC32_state</title>
<polygon fill="#ffffff" fill-opacity="0.003922" stroke="transparent" stroke-width="2" points="250,-298 118,-298 118,-262 250,-262 250,-298"/>
<text text-anchor="start" x="128.659" y="-276.2" font-family="Helvetica,sans-Serif" font-size="12.00" fill="#000000">CALC_CRC32_state</text>
<path fill="none" stroke="#000000" stroke-width="2" d="M130.3333,-263C130.3333,-263 237.6667,-263 237.6667,-263 243.3333,-263 249,-268.6667 249,-274.3333 249,-274.3333 249,-285.6667 249,-285.6667 249,-291.3333 243.3333,-297 237.6667,-297 237.6667,-297 130.3333,-297 130.3333,-297 124.6667,-297 119,-291.3333 119,-285.6667 119,-285.6667 119,-274.3333 119,-274.3333 119,-268.6667 124.6667,-263 130.3333,-263"/>
</g>
<!-- STOP_CELL_state&#45;&gt;CALC_CRC32_state -->
<g id="edge24" class="edge transition">
<title>STOP_CELL_state&#45;&gt;CALC_CRC32_state</title>
<path fill="none" stroke="#000000" d="M115.5301,-343.8015C127.7206,-332.4422 143.5857,-317.6588 156.9742,-305.1831"/>
<polygon fill="#000000" stroke="#000000" points="159.5945,-307.5255 164.5245,-298.1476 154.8224,-302.4042 159.5945,-307.5255"/>
<text text-anchor="middle" x="146.3895" y="-318" font-family="Helvetica,sans-Serif" font-size="10.00" fill="#000000"> </text>
</g>
<!-- CALC_CRC32_state&#45;&gt;CRC32_state -->
<g id="edge25" class="edge transition">
<title>CALC_CRC32_state&#45;&gt;CRC32_state</title>
<path fill="none" stroke="#000000" d="M216.722,-261.984C239.9471,-249.8212 272.1719,-234.187 302,-224 321.8589,-217.2177 344.2029,-211.7867 364.1212,-207.6785"/>
<polygon fill="#000000" stroke="#000000" points="364.8641,-211.0994 373.9854,-205.7095 363.4937,-204.2348 364.8641,-211.0994"/>
<text text-anchor="middle" x="278.3895" y="-236" font-family="Helvetica,sans-Serif" font-size="10.00" fill="#000000"> </text>
</g>
<!-- TAIL_state -->
<g id="node23" class="node state regular">
<title>TAIL_state</title>
<polygon fill="#ffffff" fill-opacity="0.003922" stroke="transparent" stroke-width="2" points="555,-134 475,-134 475,-98 555,-98 555,-134"/>
<text text-anchor="start" x="485.9894" y="-112.2" font-family="Helvetica,sans-Serif" font-size="12.00" fill="#000000">TAIL_state</text>
<path fill="none" stroke="#000000" stroke-width="2" d="M487.3333,-99C487.3333,-99 542.6667,-99 542.6667,-99 548.3333,-99 554,-104.6667 554,-110.3333 554,-110.3333 554,-121.6667 554,-121.6667 554,-127.3333 548.3333,-133 542.6667,-133 542.6667,-133 487.3333,-133 487.3333,-133 481.6667,-133 476,-127.3333 476,-121.6667 476,-121.6667 476,-110.3333 476,-110.3333 476,-104.6667 481.6667,-99 487.3333,-99"/>
</g>
<!-- CRC32_state&#45;&gt;TAIL_state -->
<g id="edge26" class="edge transition">
<title>CRC32_state&#45;&gt;TAIL_state</title>
<path fill="none" stroke="#000000" d="M428.3798,-179.8444C432.9259,-170.3608 439.5007,-159.0811 447.904,-151 451.4182,-147.6205 458.5343,-143.2588 466.8684,-138.7683"/>
<polygon fill="#000000" stroke="#000000" points="468.6348,-141.7948 475.8944,-134.0781 465.4071,-135.5834 468.6348,-141.7948"/>
<text text-anchor="start" x="447" y="-154" font-family="Helvetica,sans-Serif" font-size="10.00" fill="#000000">state_word_cnt = PACKET_CRC&#39;length / 16 &#45; 1 &#160;&#160;</text>
</g>
<!-- PAD_state -->
<g id="node24" class="node state regular">
<title>PAD_state</title>
<polygon fill="#ffffff" fill-opacity="0.003922" stroke="transparent" stroke-width="2" points="614.5,-52 535.5,-52 535.5,-16 614.5,-16 614.5,-52"/>
<text text-anchor="start" x="546.8248" y="-30.2" font-family="Helvetica,sans-Serif" font-size="12.00" fill="#000000">PAD_state</text>
<path fill="none" stroke="#000000" stroke-width="2" d="M547.8333,-17C547.8333,-17 602.1667,-17 602.1667,-17 607.8333,-17 613.5,-22.6667 613.5,-28.3333 613.5,-28.3333 613.5,-39.6667 613.5,-39.6667 613.5,-45.3333 607.8333,-51 602.1667,-51 602.1667,-51 547.8333,-51 547.8333,-51 542.1667,-51 536.5,-45.3333 536.5,-39.6667 536.5,-39.6667 536.5,-28.3333 536.5,-28.3333 536.5,-22.6667 542.1667,-17 547.8333,-17"/>
</g>
<!-- TAIL_state&#45;&gt;PAD_state -->
<g id="edge27" class="edge transition">
<title>TAIL_state&#45;&gt;PAD_state</title>
<path fill="none" stroke="#000000" d="M528.3159,-97.8015C536.3947,-86.7606 546.8402,-72.4851 555.8016,-60.2378"/>
<polygon fill="#000000" stroke="#000000" points="558.6408,-62.2847 561.7213,-52.1476 552.9915,-58.1511 558.6408,-62.2847"/>
<text text-anchor="middle" x="549.3895" y="-72" font-family="Helvetica,sans-Serif" font-size="10.00" fill="#000000"> </text>
</g>
<!-- PAD_state&#45;&gt;IDLE_state -->
<g id="edge28" class="edge transition">
<title>PAD_state&#45;&gt;IDLE_state</title>
<path fill="none" stroke="#000000" d="M614.7335,-43.1946C641.5214,-50.5878 672,-61.8821 672,-75 672,-752.5 672,-752.5 672,-752.5 672,-890.3122 500,-872.6878 500,-1010.5 500,-1845 500,-1845 500,-1845 500,-1865.5426 446.0634,-1876.242 403.5328,-1881.4855"/>
<polygon fill="#000000" stroke="#000000" points="403.0871,-1878.0136 393.5575,-1882.6437 403.8945,-1884.9669 403.0871,-1878.0136"/>
<text text-anchor="start" x="506" y="-981" font-family="Helvetica,sans-Serif" font-size="10.00" fill="#000000">state_word_cnt = packet_padding &#45; 1 &#160;&#160;</text>
</g>
</g>
</svg>
