<?xml version="1.0" encoding="UTF-8" standalone="no"?>
<!DOCTYPE svg PUBLIC "-//W3C//DTD SVG 1.1//EN"
 "http://www.w3.org/Graphics/SVG/1.1/DTD/svg11.dtd">
<!-- Generated by graphviz version 2.40.1 (20161225.0304)
 -->
<!-- Title: state transitions Pages: 1 -->
<svg width="1314pt" height="1020pt"
 viewBox="0.00 0.00 1314.35 1020.00" xmlns="http://www.w3.org/2000/svg" xmlns:xlink="http://www.w3.org/1999/xlink">
<g id="graph0" class="graph" transform="scale(1 1) rotate(0) translate(4 1016)">
<title>state transitions</title>
<polygon fill="#ffffff" stroke="transparent" points="-4,4 -4,-1016 1310.351,-1016 1310.351,4 -4,4"/>
<g id="clust1" class="cluster state regular">
<title>cluster_drs_readout_state</title>
<path fill="none" stroke="#000000" stroke-width="2" d="M20,-8C20,-8 1286,-8 1286,-8 1292,-8 1298,-14 1298,-20 1298,-20 1298,-992 1298,-992 1298,-998 1292,-1004 1286,-1004 1286,-1004 20,-1004 20,-1004 14,-1004 8,-998 8,-992 8,-992 8,-20 8,-20 8,-14 14,-8 20,-8"/>
<text text-anchor="start" x="604.649" y="-985.2" font-family="Helvetica,sans-Serif" font-size="12.00" fill="#000000">drs_readout_state</text>
</g>
<!-- drs_readout_state -->
<!-- INIT -->
<g id="node2" class="node state regular">
<title>INIT</title>
<polygon fill="#ffffff" fill-opacity="0.003922" stroke="transparent" stroke-width="2" points="1134,-966 1078,-966 1078,-930 1134,-930 1134,-966"/>
<text text-anchor="start" x="1094.6684" y="-944.2" font-family="Helvetica,sans-Serif" font-size="12.00" fill="#000000">INIT</text>
<path fill="none" stroke="#000000" stroke-width="2" d="M1090.3333,-931C1090.3333,-931 1121.6667,-931 1121.6667,-931 1127.3333,-931 1133,-936.6667 1133,-942.3333 1133,-942.3333 1133,-953.6667 1133,-953.6667 1133,-959.3333 1127.3333,-965 1121.6667,-965 1121.6667,-965 1090.3333,-965 1090.3333,-965 1084.6667,-965 1079,-959.3333 1079,-953.6667 1079,-953.6667 1079,-942.3333 1079,-942.3333 1079,-936.6667 1084.6667,-931 1090.3333,-931"/>
</g>
<!-- IDLE -->
<g id="node3" class="node state regular">
<title>IDLE</title>
<polygon fill="#ffffff" fill-opacity="0.003922" stroke="transparent" stroke-width="2" points="733,-884 677,-884 677,-848 733,-848 733,-884"/>
<text text-anchor="start" x="691.6644" y="-862.2" font-family="Helvetica,sans-Serif" font-size="12.00" fill="#000000">IDLE</text>
<path fill="none" stroke="#000000" stroke-width="2" d="M689.3333,-849C689.3333,-849 720.6667,-849 720.6667,-849 726.3333,-849 732,-854.6667 732,-860.3333 732,-860.3333 732,-871.6667 732,-871.6667 732,-877.3333 726.3333,-883 720.6667,-883 720.6667,-883 689.3333,-883 689.3333,-883 683.6667,-883 678,-877.3333 678,-871.6667 678,-871.6667 678,-860.3333 678,-860.3333 678,-854.6667 683.6667,-849 689.3333,-849"/>
</g>
<!-- INIT&#45;&gt;IDLE -->
<g id="edge2" class="edge transition">
<title>INIT&#45;&gt;IDLE</title>
<path fill="none" stroke="#000000" d="M1077.751,-945.6352C1030.8448,-941.3621 934.1145,-931.077 853.958,-913 815.4562,-904.317 772.585,-890.315 742.7581,-879.8489"/>
<polygon fill="#000000" stroke="#000000" points="743.7628,-876.4917 733.1681,-876.4478 741.423,-883.0891 743.7628,-876.4917"/>
<text text-anchor="start" x="853" y="-904" font-family="Helvetica,sans-Serif" font-size="10.00" fill="#000000">not (drs_rd_tmp_count == 1) &#160;&#160;</text>
</g>
<!-- INIT_RSR -->
<g id="node18" class="node state regular">
<title>INIT_RSR</title>
<polygon fill="#ffffff" fill-opacity="0.003922" stroke="transparent" stroke-width="2" points="100,-802 24,-802 24,-766 100,-766 100,-802"/>
<text text-anchor="start" x="34.6688" y="-780.2" font-family="Helvetica,sans-Serif" font-size="12.00" fill="#000000">INIT_RSR</text>
<path fill="none" stroke="#000000" stroke-width="2" d="M36.3333,-767C36.3333,-767 87.6667,-767 87.6667,-767 93.3333,-767 99,-772.6667 99,-778.3333 99,-778.3333 99,-789.6667 99,-789.6667 99,-795.3333 93.3333,-801 87.6667,-801 87.6667,-801 36.3333,-801 36.3333,-801 30.6667,-801 25,-795.3333 25,-789.6667 25,-789.6667 25,-778.3333 25,-778.3333 25,-772.6667 30.6667,-767 36.3333,-767"/>
</g>
<!-- INIT&#45;&gt;INIT_RSR -->
<g id="edge1" class="edge transition">
<title>INIT&#45;&gt;INIT_RSR</title>
<path fill="none" stroke="#000000" d="M1077.8737,-946.6456C1015.6217,-943.5151 861.5198,-935.0342 733,-922 458.655,-894.1766 390.7031,-880.8943 118,-840 93.938,-836.3917 81.4798,-847.925 64,-831 58.9541,-826.1142 57.0726,-819.2069 56.7991,-812.1877"/>
<polygon fill="#000000" stroke="#000000" points="60.3023,-812.2263 57.3673,-802.0461 53.3133,-811.8346 60.3023,-812.2263"/>
<text text-anchor="start" x="409" y="-869" font-family="Helvetica,sans-Serif" font-size="10.00" fill="#000000">drs_ctl_roi_mode == 1 &#160;&#160;</text>
<text text-anchor="start" x="409" y="-857" font-family="Helvetica,sans-Serif" font-size="10.00" fill="#000000">drs_rd_tmp_count == 1 &#160;&#160;</text>
</g>
<!-- IDLE&#45;&gt;INIT -->
<g id="edge3" class="edge transition">
<title>IDLE&#45;&gt;INIT</title>
<path fill="none" stroke="#000000" d="M704.6977,-884.2471C705.5676,-894.2462 708.4799,-905.9962 716.649,-913 742.9434,-935.5435 974.8675,-944.3892 1067.7667,-947.0482"/>
<polygon fill="#000000" stroke="#000000" points="1067.7751,-950.5497 1077.8684,-947.3285 1067.9693,-943.5524 1067.7751,-950.5497"/>
<text text-anchor="start" x="716" y="-904" font-family="Helvetica,sans-Serif" font-size="10.00" fill="#000000">drs_reinit_request &#160;&#160;</text>
</g>
<!-- START_RUNNING -->
<g id="node4" class="node state regular">
<title>START_RUNNING</title>
<polygon fill="#ffffff" fill-opacity="0.003922" stroke="transparent" stroke-width="2" points="882.5,-802 759.5,-802 759.5,-766 882.5,-766 882.5,-802"/>
<text text-anchor="start" x="770.5078" y="-780.2" font-family="Helvetica,sans-Serif" font-size="12.00" fill="#000000">START_RUNNING</text>
<path fill="none" stroke="#000000" stroke-width="2" d="M771.8333,-767C771.8333,-767 870.1667,-767 870.1667,-767 875.8333,-767 881.5,-772.6667 881.5,-778.3333 881.5,-778.3333 881.5,-789.6667 881.5,-789.6667 881.5,-795.3333 875.8333,-801 870.1667,-801 870.1667,-801 771.8333,-801 771.8333,-801 766.1667,-801 760.5,-795.3333 760.5,-789.6667 760.5,-789.6667 760.5,-778.3333 760.5,-778.3333 760.5,-772.6667 766.1667,-767 771.8333,-767"/>
</g>
<!-- IDLE&#45;&gt;START_RUNNING -->
<g id="edge4" class="edge transition">
<title>IDLE&#45;&gt;START_RUNNING</title>
<path fill="none" stroke="#000000" d="M733.0822,-864.506C786.9123,-861.3538 900.3483,-853.2067 912,-840 924.9356,-825.338 911.793,-813.2564 891.8536,-804.1159"/>
<polygon fill="#000000" stroke="#000000" points="893.1936,-800.8826 882.6175,-800.2523 890.4922,-807.3403 893.1936,-800.8826"/>
<text text-anchor="start" x="917" y="-822" font-family="Helvetica,sans-Serif" font-size="10.00" fill="#000000">drs_ctl_start &#160;&#160;</text>
</g>
<!-- SPIKE_REMOVAL -->
<g id="node13" class="node state regular">
<title>SPIKE_REMOVAL</title>
<polygon fill="#ffffff" fill-opacity="0.003922" stroke="transparent" stroke-width="2" points="732,-52 610,-52 610,-16 732,-16 732,-52"/>
<text text-anchor="start" x="620.6558" y="-30.2" font-family="Helvetica,sans-Serif" font-size="12.00" fill="#000000">SPIKE_REMOVAL</text>
<path fill="none" stroke="#000000" stroke-width="2" d="M622.3333,-17C622.3333,-17 719.6667,-17 719.6667,-17 725.3333,-17 731,-22.6667 731,-28.3333 731,-28.3333 731,-39.6667 731,-39.6667 731,-45.3333 725.3333,-51 719.6667,-51 719.6667,-51 622.3333,-51 622.3333,-51 616.6667,-51 611,-45.3333 611,-39.6667 611,-39.6667 611,-28.3333 611,-28.3333 611,-22.6667 616.6667,-17 622.3333,-17"/>
</g>
<!-- IDLE&#45;&gt;SPIKE_REMOVAL -->
<g id="edge7" class="edge transition">
<title>IDLE&#45;&gt;SPIKE_REMOVAL</title>
<path fill="none" stroke="#000000" d="M676.8705,-863.3416C605.8664,-856.4444 425,-837.6355 425,-825 425,-825 425,-825 425,-75 425,-57.1409 527.1807,-45.2718 599.8331,-39.0897"/>
<polygon fill="#000000" stroke="#000000" points="600.1992,-42.5714 609.8749,-38.2551 599.6194,-35.5955 600.1992,-42.5714"/>
<text text-anchor="start" x="425" y="-453" font-family="Helvetica,sans-Serif" font-size="10.00" fill="#000000">~drs_old_roi_mode &amp;&amp; drs_ctl_roi_mode &#160;&#160;</text>
</g>
<!-- CONF_SETUP -->
<g id="node14" class="node state regular">
<title>CONF_SETUP</title>
<polygon fill="#ffffff" fill-opacity="0.003922" stroke="transparent" stroke-width="2" points="689,-802 587,-802 587,-766 689,-766 689,-802"/>
<text text-anchor="start" x="597.668" y="-780.2" font-family="Helvetica,sans-Serif" font-size="12.00" fill="#000000">CONF_SETUP</text>
<path fill="none" stroke="#000000" stroke-width="2" d="M599.3333,-767C599.3333,-767 676.6667,-767 676.6667,-767 682.3333,-767 688,-772.6667 688,-778.3333 688,-778.3333 688,-789.6667 688,-789.6667 688,-795.3333 682.3333,-801 676.6667,-801 676.6667,-801 599.3333,-801 599.3333,-801 593.6667,-801 588,-795.3333 588,-789.6667 588,-789.6667 588,-778.3333 588,-778.3333 588,-772.6667 593.6667,-767 599.3333,-767"/>
</g>
<!-- IDLE&#45;&gt;CONF_SETUP -->
<g id="edge5" class="edge transition">
<title>IDLE&#45;&gt;CONF_SETUP</title>
<path fill="none" stroke="#000000" d="M731.1071,-847.822C740.3149,-839.1546 746.8583,-828.6041 740,-819 734.5105,-811.3127 717.5002,-804.2475 698.9045,-798.5085"/>
<polygon fill="#000000" stroke="#000000" points="699.669,-795.0854 689.0882,-795.6319 697.7004,-801.8029 699.669,-795.0854"/>
<text text-anchor="start" x="742" y="-822" font-family="Helvetica,sans-Serif" font-size="10.00" fill="#000000">drs_ctl_configure_drs &#160;&#160;</text>
</g>
<!-- IDLE&#45;&gt;INIT_RSR -->
<g id="edge6" class="edge transition">
<title>IDLE&#45;&gt;INIT_RSR</title>
<path fill="none" stroke="#000000" d="M676.9067,-865.2842C558.306,-862.1537 103.5542,-849.0138 79.237,-831 72.9953,-826.3763 69.0109,-819.2524 66.4684,-811.9376"/>
<polygon fill="#000000" stroke="#000000" points="69.7905,-810.8129 63.8185,-802.0616 63.0296,-812.627 69.7905,-810.8129"/>
<text text-anchor="start" x="79" y="-822" font-family="Helvetica,sans-Serif" font-size="10.00" fill="#000000">drs_old_roi_mode &amp;&amp; ~drs_ctl_roi_mode &#160;&#160;</text>
</g>
<!-- STANDBY -->
<g id="node19" class="node state regular">
<title>STANDBY</title>
<polygon fill="#ffffff" fill-opacity="0.003922" stroke="transparent" stroke-width="2" points="534,-802 456,-802 456,-766 534,-766 534,-802"/>
<text text-anchor="start" x="466.6662" y="-780.2" font-family="Helvetica,sans-Serif" font-size="12.00" fill="#000000">STANDBY</text>
<path fill="none" stroke="#000000" stroke-width="2" d="M468.3333,-767C468.3333,-767 521.6667,-767 521.6667,-767 527.3333,-767 533,-772.6667 533,-778.3333 533,-778.3333 533,-789.6667 533,-789.6667 533,-795.3333 527.3333,-801 521.6667,-801 521.6667,-801 468.3333,-801 468.3333,-801 462.6667,-801 457,-795.3333 457,-789.6667 457,-789.6667 457,-778.3333 457,-778.3333 457,-772.6667 462.6667,-767 468.3333,-767"/>
</g>
<!-- IDLE&#45;&gt;STANDBY -->
<g id="edge8" class="edge transition">
<title>IDLE&#45;&gt;STANDBY</title>
<path fill="none" stroke="#000000" d="M676.9149,-854.6715C653.0376,-845.0743 617.8232,-831.0008 587,-819 573.0262,-813.5594 557.8226,-807.7363 543.8743,-802.4322"/>
<polygon fill="#000000" stroke="#000000" points="545.04,-799.131 534.4488,-798.8541 542.5556,-805.6753 545.04,-799.131"/>
<text text-anchor="start" x="615" y="-822" font-family="Helvetica,sans-Serif" font-size="10.00" fill="#000000">drs_ctl_standby_mode &#160;&#160;</text>
</g>
<!-- START_RUNNING&#45;&gt;INIT -->
<g id="edge9" class="edge transition">
<title>START_RUNNING&#45;&gt;INIT</title>
<path fill="none" stroke="#000000" d="M882.7254,-791.1205C922.4569,-796.8236 969.4721,-806.0272 985,-819 1008.9609,-839.0181 991.9697,-859.7601 1011.649,-884 1027.1576,-903.1027 1049.8527,-918.7444 1069.0978,-929.782"/>
<polygon fill="#000000" stroke="#000000" points="1067.4952,-932.8953 1077.9395,-934.6751 1070.8847,-926.7706 1067.4952,-932.8953"/>
<text text-anchor="start" x="1011" y="-863" font-family="Helvetica,sans-Serif" font-size="10.00" fill="#000000">drs_reinit_request &#160;&#160;</text>
</g>
<!-- RUNNING -->
<g id="node5" class="node state regular">
<title>RUNNING</title>
<polygon fill="#ffffff" fill-opacity="0.003922" stroke="transparent" stroke-width="2" points="971.5,-720 894.5,-720 894.5,-684 971.5,-684 971.5,-720"/>
<text text-anchor="start" x="905.5082" y="-698.2" font-family="Helvetica,sans-Serif" font-size="12.00" fill="#000000">RUNNING</text>
<path fill="none" stroke="#000000" stroke-width="2" d="M906.8333,-685C906.8333,-685 959.1667,-685 959.1667,-685 964.8333,-685 970.5,-690.6667 970.5,-696.3333 970.5,-696.3333 970.5,-707.6667 970.5,-707.6667 970.5,-713.3333 964.8333,-719 959.1667,-719 959.1667,-719 906.8333,-719 906.8333,-719 901.1667,-719 895.5,-713.3333 895.5,-707.6667 895.5,-707.6667 895.5,-696.3333 895.5,-696.3333 895.5,-690.6667 901.1667,-685 906.8333,-685"/>
</g>
<!-- START_RUNNING&#45;&gt;RUNNING -->
<g id="edge10" class="edge transition">
<title>START_RUNNING&#45;&gt;RUNNING</title>
<path fill="none" stroke="#000000" d="M823.7715,-765.9473C826.1068,-756.2601 830.3657,-744.7532 838.083,-737 850.4984,-724.5268 867.7366,-716.4557 884.12,-711.2517"/>
<polygon fill="#000000" stroke="#000000" points="885.5146,-714.4928 894.1598,-708.3683 883.5822,-707.7648 885.5146,-714.4928"/>
<text text-anchor="start" x="838" y="-740" font-family="Helvetica,sans-Serif" font-size="10.00" fill="#000000">drs_start_timer == 105 &#160;&#160;</text>
</g>
<!-- RUNNING&#45;&gt;INIT -->
<g id="edge11" class="edge transition">
<title>RUNNING&#45;&gt;INIT</title>
<path fill="none" stroke="#000000" d="M971.7385,-706.8758C1006.6569,-713.0926 1057.5154,-726.9076 1091,-757 1121.1655,-784.1096 1130,-798.9428 1130,-839.5 1130,-907 1130,-907 1130,-907 1130,-911.6729 1128.8245,-916.2857 1126.9938,-920.636"/>
<polygon fill="#000000" stroke="#000000" points="1123.7939,-919.1966 1122.1415,-929.6618 1129.9594,-922.5112 1123.7939,-919.1966"/>
<text text-anchor="start" x="1129" y="-822" font-family="Helvetica,sans-Serif" font-size="10.00" fill="#000000">drs_reinit_request &#160;&#160;</text>
</g>
<!-- RUNNING&#45;&gt;IDLE -->
<g id="edge12" class="edge transition">
<title>RUNNING&#45;&gt;IDLE</title>
<path fill="none" stroke="#000000" d="M941.0546,-720.0564C943.3833,-725.4695 945.8697,-731.4446 948,-737 958.9239,-765.4874 946.2846,-782.9032 970.079,-802 982.8127,-812.2198 1052.4785,-797.7053 1043,-811 1025.6888,-835.2809 827.9074,-855.2848 743.1642,-862.802"/>
<polygon fill="#000000" stroke="#000000" points="742.8283,-859.3179 733.1717,-863.6768 743.4389,-866.2912 742.8283,-859.3179"/>
<text text-anchor="start" x="970" y="-781" font-family="Helvetica,sans-Serif" font-size="10.00" fill="#000000">drs_ctl_standby_mode &#160;&#160;</text>
</g>
<!-- TRIGGER -->
<g id="node6" class="node state regular">
<title>TRIGGER</title>
<polygon fill="#ffffff" fill-opacity="0.003922" stroke="transparent" stroke-width="2" points="964,-638 888,-638 888,-602 964,-602 964,-638"/>
<text text-anchor="start" x="898.6682" y="-616.2" font-family="Helvetica,sans-Serif" font-size="12.00" fill="#000000">TRIGGER</text>
<path fill="none" stroke="#000000" stroke-width="2" d="M900.3333,-603C900.3333,-603 951.6667,-603 951.6667,-603 957.3333,-603 963,-608.6667 963,-614.3333 963,-614.3333 963,-625.6667 963,-625.6667 963,-631.3333 957.3333,-637 951.6667,-637 951.6667,-637 900.3333,-637 900.3333,-637 894.6667,-637 889,-631.3333 889,-625.6667 889,-625.6667 889,-614.3333 889,-614.3333 889,-608.6667 894.6667,-603 900.3333,-603"/>
</g>
<!-- RUNNING&#45;&gt;TRIGGER -->
<g id="edge13" class="edge transition">
<title>RUNNING&#45;&gt;TRIGGER</title>
<path fill="none" stroke="#000000" d="M931.3602,-683.8363C930.8772,-678.4201 930.3525,-672.4703 929.883,-667 929.3753,-661.0858 928.8438,-654.7518 928.3426,-648.7102"/>
<polygon fill="#000000" stroke="#000000" points="931.7947,-647.9836 927.485,-638.3049 924.8183,-648.5586 931.7947,-647.9836"/>
<text text-anchor="start" x="929" y="-658" font-family="Helvetica,sans-Serif" font-size="10.00" fill="#000000">trigger || drs_ctl_dmode == 1&#39;b0 &#160;&#160;</text>
</g>
<!-- WAIT_VDD -->
<g id="node7" class="node state regular">
<title>WAIT_VDD</title>
<polygon fill="#ffffff" fill-opacity="0.003922" stroke="transparent" stroke-width="2" points="1002.5,-556 919.5,-556 919.5,-520 1002.5,-520 1002.5,-556"/>
<text text-anchor="start" x="930.5028" y="-534.2" font-family="Helvetica,sans-Serif" font-size="12.00" fill="#000000">WAIT_VDD</text>
<path fill="none" stroke="#000000" stroke-width="2" d="M931.8333,-521C931.8333,-521 990.1667,-521 990.1667,-521 995.8333,-521 1001.5,-526.6667 1001.5,-532.3333 1001.5,-532.3333 1001.5,-543.6667 1001.5,-543.6667 1001.5,-549.3333 995.8333,-555 990.1667,-555 990.1667,-555 931.8333,-555 931.8333,-555 926.1667,-555 920.5,-549.3333 920.5,-543.6667 920.5,-543.6667 920.5,-532.3333 920.5,-532.3333 920.5,-526.6667 926.1667,-521 931.8333,-521"/>
</g>
<!-- TRIGGER&#45;&gt;WAIT_VDD -->
<g id="edge14" class="edge transition">
<title>TRIGGER&#45;&gt;WAIT_VDD</title>
<path fill="none" stroke="#000000" d="M933.7676,-601.8015C938.299,-591.1853 944.1068,-577.5784 949.1941,-565.6596"/>
<polygon fill="#000000" stroke="#000000" points="952.5474,-566.7188 953.2541,-556.1476 946.1093,-563.9708 952.5474,-566.7188"/>
<text text-anchor="middle" x="946.3895" y="-576" font-family="Helvetica,sans-Serif" font-size="10.00" fill="#000000"> </text>
</g>
<!-- WAIT_VDD&#45;&gt;INIT -->
<g id="edge15" class="edge transition">
<title>WAIT_VDD&#45;&gt;INIT</title>
<path fill="none" stroke="#000000" d="M1002.6364,-539.7045C1053.5403,-542.9498 1133,-552.2929 1133,-579 1133,-675.5 1133,-675.5 1133,-675.5 1133,-696.8345 1140.9606,-701.1753 1151,-720 1158.3262,-733.7373 1161.5001,-736.403 1170.649,-749 1200.5868,-790.2212 1241,-788.5543 1241,-839.5 1241,-907 1241,-907 1241,-907 1241,-927.3361 1184.205,-938.5404 1144.2914,-943.9035"/>
<polygon fill="#000000" stroke="#000000" points="1143.7792,-940.4403 1134.3004,-945.1734 1144.662,-947.3844 1143.7792,-940.4403"/>
<text text-anchor="start" x="1170" y="-740" font-family="Helvetica,sans-Serif" font-size="10.00" fill="#000000">drs_reinit_request &#160;&#160;</text>
</g>
<!-- INIT_READOUT -->
<g id="node8" class="node state regular">
<title>INIT_READOUT</title>
<polygon fill="#ffffff" fill-opacity="0.003922" stroke="transparent" stroke-width="2" points="1092.5,-474 983.5,-474 983.5,-438 1092.5,-438 1092.5,-474"/>
<text text-anchor="start" x="994.5032" y="-452.2" font-family="Helvetica,sans-Serif" font-size="12.00" fill="#000000">INIT_READOUT</text>
<path fill="none" stroke="#000000" stroke-width="2" d="M995.8333,-439C995.8333,-439 1080.1667,-439 1080.1667,-439 1085.8333,-439 1091.5,-444.6667 1091.5,-450.3333 1091.5,-450.3333 1091.5,-461.6667 1091.5,-461.6667 1091.5,-467.3333 1085.8333,-473 1080.1667,-473 1080.1667,-473 995.8333,-473 995.8333,-473 990.1667,-473 984.5,-467.3333 984.5,-461.6667 984.5,-461.6667 984.5,-450.3333 984.5,-450.3333 984.5,-444.6667 990.1667,-439 995.8333,-439"/>
</g>
<!-- WAIT_VDD&#45;&gt;INIT_READOUT -->
<g id="edge16" class="edge transition">
<title>WAIT_VDD&#45;&gt;INIT_READOUT</title>
<path fill="none" stroke="#000000" d="M954.9386,-519.7108C953.0112,-510.4139 952.5986,-499.3483 958.057,-491 962.2181,-484.6358 967.8202,-479.4217 974.1383,-475.1514"/>
<polygon fill="#000000" stroke="#000000" points="976.2638,-477.9631 983.1297,-469.894 972.7305,-471.9203 976.2638,-477.9631"/>
<text text-anchor="start" x="958" y="-494" font-family="Helvetica,sans-Serif" font-size="10.00" fill="#000000">drs_rd_tmp_count == drs_ctl_wait_vdd_clocks &#160;&#160;</text>
</g>
<!-- INIT_READOUT&#45;&gt;INIT -->
<g id="edge17" class="edge transition">
<title>INIT_READOUT&#45;&gt;INIT</title>
<path fill="none" stroke="#000000" d="M1092.8526,-463.3785C1125.6592,-469.0352 1162.8876,-478.0838 1173,-491 1221.2242,-552.5949 1160.7492,-590.0817 1175,-667 1179.5766,-691.7019 1176.0148,-703.1509 1194.649,-720 1216.9098,-740.1283 1238.9412,-715.6173 1260,-737 1266.5806,-743.6818 1265,-748.1218 1265,-757.5 1265,-907 1265,-907 1265,-907 1265,-919.4493 1190.9685,-933.9988 1143.9369,-941.9859"/>
<polygon fill="#000000" stroke="#000000" points="1143.3472,-938.5358 1134.06,-943.6346 1144.4998,-945.4403 1143.3472,-938.5358"/>
<text text-anchor="start" x="1194" y="-699" font-family="Helvetica,sans-Serif" font-size="10.00" fill="#000000">drs_reinit_request &#160;&#160;</text>
</g>
<!-- RSR_LOAD -->
<g id="node9" class="node state regular">
<title>RSR_LOAD</title>
<polygon fill="#ffffff" fill-opacity="0.003922" stroke="transparent" stroke-width="2" points="1081,-392 995,-392 995,-356 1081,-356 1081,-392"/>
<text text-anchor="start" x="1005.6648" y="-370.2" font-family="Helvetica,sans-Serif" font-size="12.00" fill="#000000">RSR_LOAD</text>
<path fill="none" stroke="#000000" stroke-width="2" d="M1007.3333,-357C1007.3333,-357 1068.6667,-357 1068.6667,-357 1074.3333,-357 1080,-362.6667 1080,-368.3333 1080,-368.3333 1080,-379.6667 1080,-379.6667 1080,-385.3333 1074.3333,-391 1068.6667,-391 1068.6667,-391 1007.3333,-391 1007.3333,-391 1001.6667,-391 996,-385.3333 996,-379.6667 996,-379.6667 996,-368.3333 996,-368.3333 996,-362.6667 1001.6667,-357 1007.3333,-357"/>
</g>
<!-- INIT_READOUT&#45;&gt;RSR_LOAD -->
<g id="edge18" class="edge transition">
<title>INIT_READOUT&#45;&gt;RSR_LOAD</title>
<path fill="none" stroke="#000000" d="M1038,-437.8015C1038,-427.3976 1038,-414.1215 1038,-402.3768"/>
<polygon fill="#000000" stroke="#000000" points="1041.5001,-402.1476 1038,-392.1476 1034.5001,-402.1476 1041.5001,-402.1476"/>
<text text-anchor="start" x="1038" y="-412" font-family="Helvetica,sans-Serif" font-size="10.00" fill="#000000">not (drs_reinit_request) &#160;&#160;</text>
</g>
<!-- RSR_LOAD&#45;&gt;INIT -->
<g id="edge19" class="edge transition">
<title>RSR_LOAD&#45;&gt;INIT</title>
<path fill="none" stroke="#000000" d="M1081.0891,-376.3264C1129.6794,-380.1591 1202,-390.0538 1202,-415 1202,-646.5 1202,-646.5 1202,-646.5 1202,-686.5746 1260.4913,-651.5452 1284,-684 1295.6751,-700.118 1289,-708.5978 1289,-728.5 1289,-907 1289,-907 1289,-907 1289,-928.0819 1264.4055,-916.7029 1244,-922 1210.73,-930.6367 1172.2492,-937.6463 1144.3883,-942.2015"/>
<polygon fill="#000000" stroke="#000000" points="1143.5828,-938.7859 1134.2633,-943.8254 1144.6914,-945.6976 1143.5828,-938.7859"/>
<text text-anchor="start" x="1218" y="-658" font-family="Helvetica,sans-Serif" font-size="10.00" fill="#000000">drs_reinit_request &#160;&#160;</text>
</g>
<!-- ADC_READOUT -->
<g id="node10" class="node state regular">
<title>ADC_READOUT</title>
<polygon fill="#ffffff" fill-opacity="0.003922" stroke="transparent" stroke-width="2" points="986,-310 874,-310 874,-274 986,-274 986,-310"/>
<text text-anchor="start" x="884.6706" y="-288.2" font-family="Helvetica,sans-Serif" font-size="12.00" fill="#000000">ADC_READOUT</text>
<path fill="none" stroke="#000000" stroke-width="2" d="M886.3333,-275C886.3333,-275 973.6667,-275 973.6667,-275 979.3333,-275 985,-280.6667 985,-286.3333 985,-286.3333 985,-297.6667 985,-297.6667 985,-303.3333 979.3333,-309 973.6667,-309 973.6667,-309 886.3333,-309 886.3333,-309 880.6667,-309 875,-303.3333 875,-297.6667 875,-297.6667 875,-286.3333 875,-286.3333 875,-280.6667 880.6667,-275 886.3333,-275"/>
</g>
<!-- RSR_LOAD&#45;&gt;ADC_READOUT -->
<g id="edge20" class="edge transition">
<title>RSR_LOAD&#45;&gt;ADC_READOUT</title>
<path fill="none" stroke="#000000" d="M1014.0313,-355.8015C998.7905,-344.2298 978.87,-329.105 962.2498,-316.486"/>
<polygon fill="#000000" stroke="#000000" points="963.9827,-313.4071 953.9017,-310.1476 959.7497,-318.9823 963.9827,-313.4071"/>
<text text-anchor="start" x="991" y="-330" font-family="Helvetica,sans-Serif" font-size="10.00" fill="#000000">not (drs_reinit_request) &#160;&#160;</text>
</g>
<!-- ADC_READOUT&#45;&gt;INIT -->
<g id="edge21" class="edge transition">
<title>ADC_READOUT&#45;&gt;INIT</title>
<path fill="none" stroke="#000000" d="M930,-310.3688C930,-317.4426 930,-325.5972 930,-333 930,-429.5 930,-429.5 930,-429.5 930,-449.4022 929.4076,-454.592 925,-474 920.2063,-495.1084 912.6059,-498.6566 909,-520 906.3346,-535.7764 899.9519,-542.8041 909,-556 920.8556,-573.2902 934.6926,-562.7851 953,-573 994.7307,-596.2843 997.1693,-614.2715 1038.649,-638 1055.897,-647.8667 1067.0478,-639.9307 1080,-655 1086.1129,-662.1121 1085,-666.1218 1085,-675.5 1085,-810.5 1085,-810.5 1085,-810.5 1085,-828.6203 1096.9286,-830.343 1101,-848 1106.4626,-871.6905 1107.4487,-899.3437 1107.2193,-919.5582"/>
<polygon fill="#000000" stroke="#000000" points="1103.7177,-919.5957 1106.9967,-929.6703 1110.716,-919.7498 1103.7177,-919.5957"/>
<text text-anchor="start" x="1038" y="-617" font-family="Helvetica,sans-Serif" font-size="10.00" fill="#000000">drs_reinit_request &#160;&#160;</text>
</g>
<!-- STOP_CELL -->
<g id="node11" class="node state regular">
<title>STOP_CELL</title>
<polygon fill="#ffffff" fill-opacity="0.003922" stroke="transparent" stroke-width="2" points="953.5,-216 862.5,-216 862.5,-180 953.5,-180 953.5,-216"/>
<text text-anchor="start" x="873.8254" y="-194.2" font-family="Helvetica,sans-Serif" font-size="12.00" fill="#000000">STOP_CELL</text>
<path fill="none" stroke="#000000" stroke-width="2" d="M874.8333,-181C874.8333,-181 941.1667,-181 941.1667,-181 946.8333,-181 952.5,-186.6667 952.5,-192.3333 952.5,-192.3333 952.5,-203.6667 952.5,-203.6667 952.5,-209.3333 946.8333,-215 941.1667,-215 941.1667,-215 874.8333,-215 874.8333,-215 869.1667,-215 863.5,-209.3333 863.5,-203.6667 863.5,-203.6667 863.5,-192.3333 863.5,-192.3333 863.5,-186.6667 869.1667,-181 874.8333,-181"/>
</g>
<!-- ADC_READOUT&#45;&gt;STOP_CELL -->
<g id="edge22" class="edge transition">
<title>ADC_READOUT&#45;&gt;STOP_CELL</title>
<path fill="none" stroke="#000000" d="M925.7582,-273.8759C922.5929,-260.3516 918.2088,-241.6192 914.5886,-226.1514"/>
<polygon fill="#000000" stroke="#000000" points="917.9156,-225.0078 912.2288,-216.0685 911.0998,-226.603 917.9156,-225.0078"/>
<text text-anchor="start" x="921" y="-248" font-family="Helvetica,sans-Serif" font-size="10.00" fill="#000000">drs_addr==drs_ctl_last_chn &#160;&#160;</text>
<text text-anchor="start" x="921" y="-236" font-family="Helvetica,sans-Serif" font-size="10.00" fill="#000000">drs_sample_count==drs_ctl_sample_count_max &#160;&#160;</text>
</g>
<!-- DONE -->
<g id="node12" class="node state regular">
<title>DONE</title>
<polygon fill="#ffffff" fill-opacity="0.003922" stroke="transparent" stroke-width="2" points="845,-134 789,-134 789,-98 845,-98 845,-134"/>
<text text-anchor="start" x="799.6684" y="-112.2" font-family="Helvetica,sans-Serif" font-size="12.00" fill="#000000">DONE</text>
<path fill="none" stroke="#000000" stroke-width="2" d="M801.3333,-99C801.3333,-99 832.6667,-99 832.6667,-99 838.3333,-99 844,-104.6667 844,-110.3333 844,-110.3333 844,-121.6667 844,-121.6667 844,-127.3333 838.3333,-133 832.6667,-133 832.6667,-133 801.3333,-133 801.3333,-133 795.6667,-133 790,-127.3333 790,-121.6667 790,-121.6667 790,-110.3333 790,-110.3333 790,-104.6667 795.6667,-99 801.3333,-99"/>
</g>
<!-- STOP_CELL&#45;&gt;DONE -->
<g id="edge23" class="edge transition">
<title>STOP_CELL&#45;&gt;DONE</title>
<path fill="none" stroke="#000000" d="M887.8042,-179.8015C875.198,-168.4422 858.7921,-153.6588 844.9471,-141.1831"/>
<polygon fill="#000000" stroke="#000000" points="846.9113,-138.2417 837.1394,-134.1476 842.2253,-143.4419 846.9113,-138.2417"/>
<text text-anchor="middle" x="869.3895" y="-154" font-family="Helvetica,sans-Serif" font-size="10.00" fill="#000000"> </text>
</g>
<!-- DONE&#45;&gt;START_RUNNING -->
<g id="edge25" class="edge transition">
<title>DONE&#45;&gt;START_RUNNING</title>
<path fill="none" stroke="#000000" d="M817,-134.3688C817,-141.4426 817,-149.5972 817,-157 817,-400.5 817,-400.5 817,-400.5 817,-420.3178 801.7983,-420.3049 792.875,-438 783.3509,-456.8865 776,-461.3479 776,-482.5 776,-743 776,-743 776,-743 776,-748.6808 777.9838,-753.7835 781.1183,-758.3005"/>
<polygon fill="#000000" stroke="#000000" points="778.5477,-760.6766 787.8232,-765.7968 783.7652,-756.0099 778.5477,-760.6766"/>
<text text-anchor="start" x="792" y="-453" font-family="Helvetica,sans-Serif" font-size="10.00" fill="#000000">not (drs_ctl_spike_removal) &#160;&#160;</text>
</g>
<!-- DONE&#45;&gt;SPIKE_REMOVAL -->
<g id="edge24" class="edge transition">
<title>DONE&#45;&gt;SPIKE_REMOVAL</title>
<path fill="none" stroke="#000000" d="M788.8497,-100.1896C767.0049,-87.9206 736.4119,-70.7382 711.8709,-56.9549"/>
<polygon fill="#000000" stroke="#000000" points="713.5636,-53.8913 703.1306,-52.046 710.1357,-59.9946 713.5636,-53.8913"/>
<text text-anchor="start" x="753" y="-72" font-family="Helvetica,sans-Serif" font-size="10.00" fill="#000000">drs_ctl_spike_removal &#160;&#160;</text>
</g>
<!-- SPIKE_REMOVAL&#45;&gt;START_RUNNING -->
<g id="edge26" class="edge transition">
<title>SPIKE_REMOVAL&#45;&gt;START_RUNNING</title>
<path fill="none" stroke="#000000" d="M671,-52.3688C671,-59.4426 671,-67.5972 671,-75 671,-400.5 671,-400.5 671,-400.5 671,-481.0697 743.4614,-673.2828 771,-749 772.4961,-753.1136 772.0572,-754.7595 775,-758 775.3238,-758.3565 775.6536,-758.7094 775.9891,-759.0585"/>
<polygon fill="#000000" stroke="#000000" points="773.9107,-761.8909 783.7383,-765.8493 778.5242,-756.6263 773.9107,-761.8909"/>
<text text-anchor="start" x="672" y="-412" font-family="Helvetica,sans-Serif" font-size="10.00" fill="#000000">drs_rd_tmp_count==1024 &#160;&#160;</text>
</g>
<!-- CONF_WRITE -->
<g id="node15" class="node state regular">
<title>CONF_WRITE</title>
<polygon fill="#ffffff" fill-opacity="0.003922" stroke="transparent" stroke-width="2" points="564.5,-720 463.5,-720 463.5,-684 564.5,-684 564.5,-720"/>
<text text-anchor="start" x="474.84" y="-698.2" font-family="Helvetica,sans-Serif" font-size="12.00" fill="#000000">CONF_WRITE</text>
<path fill="none" stroke="#000000" stroke-width="2" d="M475.8333,-685C475.8333,-685 552.1667,-685 552.1667,-685 557.8333,-685 563.5,-690.6667 563.5,-696.3333 563.5,-696.3333 563.5,-707.6667 563.5,-707.6667 563.5,-713.3333 557.8333,-719 552.1667,-719 552.1667,-719 475.8333,-719 475.8333,-719 470.1667,-719 464.5,-713.3333 464.5,-707.6667 464.5,-707.6667 464.5,-696.3333 464.5,-696.3333 464.5,-690.6667 470.1667,-685 475.8333,-685"/>
</g>
<!-- CONF_SETUP&#45;&gt;CONF_WRITE -->
<g id="edge27" class="edge transition">
<title>CONF_SETUP&#45;&gt;CONF_WRITE</title>
<path fill="none" stroke="#000000" d="M610.4804,-765.8015C592.6606,-754.0175 569.2688,-738.5487 549.9811,-725.7939"/>
<polygon fill="#000000" stroke="#000000" points="551.7144,-722.7441 541.4427,-720.1476 547.8533,-728.583 551.7144,-722.7441"/>
<text text-anchor="middle" x="585.3895" y="-740" font-family="Helvetica,sans-Serif" font-size="10.00" fill="#000000"> </text>
</g>
<!-- WSR_SETUP -->
<g id="node16" class="node state regular">
<title>WSR_SETUP</title>
<polygon fill="#ffffff" fill-opacity="0.003922" stroke="transparent" stroke-width="2" points="569,-638 473,-638 473,-602 569,-602 569,-638"/>
<text text-anchor="start" x="483.6674" y="-616.2" font-family="Helvetica,sans-Serif" font-size="12.00" fill="#000000">WSR_SETUP</text>
<path fill="none" stroke="#000000" stroke-width="2" d="M485.3333,-603C485.3333,-603 556.6667,-603 556.6667,-603 562.3333,-603 568,-608.6667 568,-614.3333 568,-614.3333 568,-625.6667 568,-625.6667 568,-631.3333 562.3333,-637 556.6667,-637 556.6667,-637 485.3333,-637 485.3333,-637 479.6667,-637 474,-631.3333 474,-625.6667 474,-625.6667 474,-614.3333 474,-614.3333 474,-608.6667 479.6667,-603 485.3333,-603"/>
</g>
<!-- CONF_WRITE&#45;&gt;WSR_SETUP -->
<g id="edge28" class="edge transition">
<title>CONF_WRITE&#45;&gt;WSR_SETUP</title>
<path fill="none" stroke="#000000" d="M511.0015,-683.6318C510.0298,-674.9228 509.5066,-664.3922 510.842,-655 511.1604,-652.7606 511.588,-650.4641 512.088,-648.1701"/>
<polygon fill="#000000" stroke="#000000" points="515.5216,-648.8713 514.6303,-638.3141 508.7435,-647.1229 515.5216,-648.8713"/>
<text text-anchor="start" x="510" y="-658" font-family="Helvetica,sans-Serif" font-size="10.00" fill="#000000">shift_out_config_done &#160;&#160;</text>
</g>
<!-- WSR_STROBE -->
<g id="node17" class="node state regular">
<title>WSR_STROBE</title>
<polygon fill="#ffffff" fill-opacity="0.003922" stroke="transparent" stroke-width="2" points="637.5,-556 532.5,-556 532.5,-520 637.5,-520 637.5,-556"/>
<text text-anchor="start" x="543.5" y="-534.2" font-family="Helvetica,sans-Serif" font-size="12.00" fill="#000000">WSR_STROBE</text>
<path fill="none" stroke="#000000" stroke-width="2" d="M544.8333,-521C544.8333,-521 625.1667,-521 625.1667,-521 630.8333,-521 636.5,-526.6667 636.5,-532.3333 636.5,-532.3333 636.5,-543.6667 636.5,-543.6667 636.5,-549.3333 630.8333,-555 625.1667,-555 625.1667,-555 544.8333,-555 544.8333,-555 539.1667,-555 533.5,-549.3333 533.5,-543.6667 533.5,-543.6667 533.5,-532.3333 533.5,-532.3333 533.5,-526.6667 539.1667,-521 544.8333,-521"/>
</g>
<!-- WSR_SETUP&#45;&gt;WSR_STROBE -->
<g id="edge29" class="edge transition">
<title>WSR_SETUP&#45;&gt;WSR_STROBE</title>
<path fill="none" stroke="#000000" d="M535.2037,-601.8015C543.821,-590.7606 554.9628,-576.4851 564.5217,-564.2378"/>
<polygon fill="#000000" stroke="#000000" points="567.4424,-566.1842 570.836,-556.1476 561.9242,-561.8773 567.4424,-566.1842"/>
<text text-anchor="middle" x="558.3895" y="-576" font-family="Helvetica,sans-Serif" font-size="10.00" fill="#000000"> </text>
</g>
<!-- WSR_STROBE&#45;&gt;IDLE -->
<g id="edge30" class="edge transition">
<title>WSR_STROBE&#45;&gt;IDLE</title>
<path fill="none" stroke="#000000" d="M612.2124,-556.3427C618.3033,-562.6048 623,-570.2654 623,-579 623,-675.5 623,-675.5 623,-675.5 623,-696.6469 627.1426,-703.091 639.842,-720 640.9807,-721.5162 747.257,-801.2534 749,-802 791.246,-820.0963 821.2935,-783.9326 851,-819 854.4473,-823.0694 854.3025,-826.8122 851,-831 837.8327,-847.6969 782.1433,-857.3277 743.4828,-862.1171"/>
<polygon fill="#000000" stroke="#000000" points="742.602,-858.6965 733.0797,-863.3414 743.4202,-865.6486 742.602,-858.6965"/>
<text text-anchor="start" x="639" y="-699" font-family="Helvetica,sans-Serif" font-size="10.00" fill="#000000">shift_out_config_done &#160;&#160;</text>
</g>
<!-- INIT_RSR&#45;&gt;IDLE -->
<g id="edge31" class="edge transition">
<title>INIT_RSR&#45;&gt;IDLE</title>
<path fill="none" stroke="#000000" d="M100.1827,-789.2193C142.0761,-795.2254 211.1909,-805.9582 270,-819 289.538,-823.3328 293.7087,-827.428 313.4,-831 441.4828,-854.2343 596.0572,-862.2751 666.5711,-864.8653"/>
<polygon fill="#000000" stroke="#000000" points="666.6344,-868.3696 676.751,-865.2225 666.8799,-861.3739 666.6344,-868.3696"/>
<text text-anchor="start" x="313" y="-822" font-family="Helvetica,sans-Serif" font-size="10.00" fill="#000000">drs_sr_count == 1025 &#160;&#160;</text>
</g>
<!-- STANDBY&#45;&gt;IDLE -->
<g id="edge32" class="edge transition">
<title>STANDBY&#45;&gt;IDLE</title>
<path fill="none" stroke="#000000" d="M475.7473,-802.1494C468.2233,-811.4082 462.9578,-822.4817 470.3,-831 482.9436,-845.669 603.6324,-857.6714 666.8267,-863.0107"/>
<polygon fill="#000000" stroke="#000000" points="666.5625,-866.5007 676.8177,-863.8397 667.1414,-859.5246 666.5625,-866.5007"/>
<text text-anchor="start" x="470" y="-822" font-family="Helvetica,sans-Serif" font-size="10.00" fill="#000000">!drs_ctl_standby_mode &#160;&#160;</text>
</g>
</g>
</svg>
