<?xml version="1.0" encoding="UTF-8" standalone="no"?>
<!DOCTYPE svg PUBLIC "-//W3C//DTD SVG 1.1//EN"
 "http://www.w3.org/Graphics/SVG/1.1/DTD/svg11.dtd">
<!-- Generated by graphviz version 2.40.1 (20161225.0304)
 -->
<!-- Title: state transitions Pages: 1 -->
<svg width="634pt" height="482pt"
 viewBox="0.00 0.00 634.00 482.00" xmlns="http://www.w3.org/2000/svg" xmlns:xlink="http://www.w3.org/1999/xlink">
<g id="graph0" class="graph" transform="scale(1 1) rotate(0) translate(4 478)">
<title>state transitions</title>
<polygon fill="#ffffff" stroke="transparent" points="-4,4 -4,-478 630,-478 630,4 -4,4"/>
<g id="clust1" class="cluster state regular">
<title>cluster_s2mm_data_state</title>
<path fill="none" stroke="#000000" stroke-width="2" d="M20,-8C20,-8 606,-8 606,-8 612,-8 618,-14 618,-20 618,-20 618,-454 618,-454 618,-460 612,-466 606,-466 606,-466 20,-466 20,-466 14,-466 8,-460 8,-454 8,-454 8,-20 8,-20 8,-14 14,-8 20,-8"/>
<text text-anchor="start" x="265.8198" y="-447.2" font-family="Helvetica,sans-Serif" font-size="12.00" fill="#000000">s2mm_data_state</text>
</g>
<!-- s2mm_data_state -->
<!-- IDLE -->
<g id="node2" class="node state regular">
<title>IDLE</title>
<polygon fill="#ffffff" fill-opacity="0.003922" stroke="transparent" stroke-width="2" points="158,-422 102,-422 102,-386 158,-386 158,-422"/>
<text text-anchor="start" x="116.6644" y="-400.2" font-family="Helvetica,sans-Serif" font-size="12.00" fill="#000000">IDLE</text>
<path fill="none" stroke="#000000" stroke-width="2" d="M114.3333,-387C114.3333,-387 145.6667,-387 145.6667,-387 151.3333,-387 157,-392.6667 157,-398.3333 157,-398.3333 157,-409.6667 157,-409.6667 157,-415.3333 151.3333,-421 145.6667,-421 145.6667,-421 114.3333,-421 114.3333,-421 108.6667,-421 103,-415.3333 103,-409.6667 103,-409.6667 103,-398.3333 103,-398.3333 103,-392.6667 108.6667,-387 114.3333,-387"/>
</g>
<!-- IDLE&#45;&gt;IDLE -->
<g id="edge3" class="edge transition">
<title>IDLE&#45;&gt;IDLE</title>
<path fill="none" stroke="#000000" d="M158.0183,-409.9381C169.888,-410.3856 180,-408.4063 180,-404 180,-400.9707 175.2205,-399.0885 168.3762,-398.3533"/>
<polygon fill="#000000" stroke="#000000" points="168.1128,-394.8446 158.0183,-398.0619 167.9158,-401.8419 168.1128,-394.8446"/>
<text text-anchor="start" x="180" y="-419" font-family="Helvetica,sans-Serif" font-size="10.00" fill="#000000">not ((unsigned(fifo_count) mod WORDS_TO_SEND) = 0 &#160;&#160;</text>
<text text-anchor="start" x="180" y="-407" font-family="Helvetica,sans-Serif" font-size="10.00" fill="#000000">and unsigned(fifo_count) /= 0 &#160;&#160;</text>
<text text-anchor="start" x="180" y="-395" font-family="Helvetica,sans-Serif" font-size="10.00" fill="#000000">and s2mm_cmd_tready = &#39;1&#39;) &#160;&#160;</text>
<text text-anchor="start" x="180" y="-383" font-family="Helvetica,sans-Serif" font-size="10.00" fill="#000000">not (clear_pulse_r1 = &#39;1&#39; and s2mm_cmd_tready = &#39;1&#39;) &#160;&#160;</text>
</g>
<!-- ASSERT_CMD -->
<g id="node3" class="node state regular">
<title>ASSERT_CMD</title>
<polygon fill="#ffffff" fill-opacity="0.003922" stroke="transparent" stroke-width="2" points="282.5,-310 179.5,-310 179.5,-274 282.5,-274 282.5,-310"/>
<text text-anchor="start" x="190.502" y="-288.2" font-family="Helvetica,sans-Serif" font-size="12.00" fill="#000000">ASSERT_CMD</text>
<path fill="none" stroke="#000000" stroke-width="2" d="M191.8333,-275C191.8333,-275 270.1667,-275 270.1667,-275 275.8333,-275 281.5,-280.6667 281.5,-286.3333 281.5,-286.3333 281.5,-297.6667 281.5,-297.6667 281.5,-303.3333 275.8333,-309 270.1667,-309 270.1667,-309 191.8333,-309 191.8333,-309 186.1667,-309 180.5,-303.3333 180.5,-297.6667 180.5,-297.6667 180.5,-286.3333 180.5,-286.3333 180.5,-280.6667 186.1667,-275 191.8333,-275"/>
</g>
<!-- IDLE&#45;&gt;ASSERT_CMD -->
<g id="edge1" class="edge transition">
<title>IDLE&#45;&gt;ASSERT_CMD</title>
<path fill="none" stroke="#000000" d="M109.9196,-385.8181C104.0698,-379.2674 98.4293,-371.4014 95.355,-363 89.8567,-347.9744 85.556,-339.6483 95.355,-327 104.7968,-314.8127 138.1544,-306.1125 169.4244,-300.4347"/>
<polygon fill="#000000" stroke="#000000" points="170.2137,-303.8502 179.4707,-298.6968 169.0204,-296.9526 170.2137,-303.8502"/>
<text text-anchor="start" x="95" y="-354" font-family="Helvetica,sans-Serif" font-size="10.00" fill="#000000">(unsigned(fifo_count) mod WORDS_TO_SEND) = 0 &#160;&#160;</text>
<text text-anchor="start" x="95" y="-342" font-family="Helvetica,sans-Serif" font-size="10.00" fill="#000000">and unsigned(fifo_count) /= 0 &#160;&#160;</text>
<text text-anchor="start" x="95" y="-330" font-family="Helvetica,sans-Serif" font-size="10.00" fill="#000000">and s2mm_cmd_tready = &#39;1&#39; &#160;&#160;</text>
</g>
<!-- IDLE&#45;&gt;ASSERT_CMD -->
<g id="edge2" class="edge transition">
<title>IDLE&#45;&gt;ASSERT_CMD</title>
<path fill="none" stroke="#000000" d="M158.2869,-402.6217C209.1849,-399.4853 312.9673,-389.8756 335,-363 345.1438,-350.6265 344.3367,-339.9933 335,-327 329.3177,-319.0923 311.5893,-311.9189 292.3417,-306.1543"/>
<polygon fill="#000000" stroke="#000000" points="293.0828,-302.7263 282.5068,-303.3565 291.1674,-309.4592 293.0828,-302.7263"/>
<text text-anchor="start" x="342" y="-342" font-family="Helvetica,sans-Serif" font-size="10.00" fill="#000000">clear_pulse_r1 = &#39;1&#39; and s2mm_cmd_tready = &#39;1&#39; &#160;&#160;</text>
</g>
<!-- DELAY0 -->
<g id="node4" class="node state regular">
<title>DELAY0</title>
<polygon fill="#ffffff" fill-opacity="0.003922" stroke="transparent" stroke-width="2" points="296,-228 228,-228 228,-192 296,-192 296,-228"/>
<text text-anchor="start" x="238.9936" y="-206.2" font-family="Helvetica,sans-Serif" font-size="12.00" fill="#000000">DELAY0</text>
<path fill="none" stroke="#000000" stroke-width="2" d="M240.3333,-193C240.3333,-193 283.6667,-193 283.6667,-193 289.3333,-193 295,-198.6667 295,-204.3333 295,-204.3333 295,-215.6667 295,-215.6667 295,-221.3333 289.3333,-227 283.6667,-227 283.6667,-227 240.3333,-227 240.3333,-227 234.6667,-227 229,-221.3333 229,-215.6667 229,-215.6667 229,-204.3333 229,-204.3333 229,-198.6667 234.6667,-193 240.3333,-193"/>
</g>
<!-- ASSERT_CMD&#45;&gt;DELAY0 -->
<g id="edge4" class="edge transition">
<title>ASSERT_CMD&#45;&gt;DELAY0</title>
<path fill="none" stroke="#000000" d="M237.8799,-273.8015C241.8934,-263.1853 247.0374,-249.5784 251.5433,-237.6596"/>
<polygon fill="#000000" stroke="#000000" points="254.8769,-238.7392 255.1393,-228.1476 248.3292,-236.2638 254.8769,-238.7392"/>
<text text-anchor="middle" x="249.3895" y="-248" font-family="Helvetica,sans-Serif" font-size="10.00" fill="#000000"> </text>
</g>
<!-- READ_FIFO -->
<g id="node5" class="node state regular">
<title>READ_FIFO</title>
<polygon fill="#ffffff" fill-opacity="0.003922" stroke="transparent" stroke-width="2" points="400.5,-134 311.5,-134 311.5,-98 400.5,-98 400.5,-134"/>
<text text-anchor="start" x="322.8334" y="-112.2" font-family="Helvetica,sans-Serif" font-size="12.00" fill="#000000">READ_FIFO</text>
<path fill="none" stroke="#000000" stroke-width="2" d="M323.8333,-99C323.8333,-99 388.1667,-99 388.1667,-99 393.8333,-99 399.5,-104.6667 399.5,-110.3333 399.5,-110.3333 399.5,-121.6667 399.5,-121.6667 399.5,-127.3333 393.8333,-133 388.1667,-133 388.1667,-133 323.8333,-133 323.8333,-133 318.1667,-133 312.5,-127.3333 312.5,-121.6667 312.5,-121.6667 312.5,-110.3333 312.5,-110.3333 312.5,-104.6667 318.1667,-99 323.8333,-99"/>
</g>
<!-- DELAY0&#45;&gt;READ_FIFO -->
<g id="edge5" class="edge transition">
<title>DELAY0&#45;&gt;READ_FIFO</title>
<path fill="none" stroke="#000000" d="M291.9033,-191.9789C299.184,-186.9344 306.6858,-181.1377 313,-175 322.8696,-165.4063 332.1034,-153.3353 339.4649,-142.6149"/>
<polygon fill="#000000" stroke="#000000" points="342.5622,-144.2777 345.181,-134.0116 336.7318,-140.4039 342.5622,-144.2777"/>
<text text-anchor="start" x="333" y="-166" font-family="Helvetica,sans-Serif" font-size="10.00" fill="#000000">clear_mode = &#39;0&#39; &#160;&#160;</text>
<text text-anchor="start" x="333" y="-154" font-family="Helvetica,sans-Serif" font-size="10.00" fill="#000000">delay_counter &gt; 20 &#160;&#160;</text>
</g>
<!-- CLEAR_MEM -->
<g id="node6" class="node state regular">
<title>CLEAR_MEM</title>
<polygon fill="#ffffff" fill-opacity="0.003922" stroke="transparent" stroke-width="2" points="214,-134 118,-134 118,-98 214,-98 214,-134"/>
<text text-anchor="start" x="128.6674" y="-112.2" font-family="Helvetica,sans-Serif" font-size="12.00" fill="#000000">CLEAR_MEM</text>
<path fill="none" stroke="#000000" stroke-width="2" d="M130.3333,-99C130.3333,-99 201.6667,-99 201.6667,-99 207.3333,-99 213,-104.6667 213,-110.3333 213,-110.3333 213,-121.6667 213,-121.6667 213,-127.3333 207.3333,-133 201.6667,-133 201.6667,-133 130.3333,-133 130.3333,-133 124.6667,-133 119,-127.3333 119,-121.6667 119,-121.6667 119,-110.3333 119,-110.3333 119,-104.6667 124.6667,-99 130.3333,-99"/>
</g>
<!-- DELAY0&#45;&gt;CLEAR_MEM -->
<g id="edge6" class="edge transition">
<title>DELAY0&#45;&gt;CLEAR_MEM</title>
<path fill="none" stroke="#000000" d="M227.7156,-193.5151C218.9665,-188.3418 209.9905,-182.0986 202.724,-175 193.3787,-165.8707 185.3689,-153.9088 179.2367,-143.1439"/>
<polygon fill="#000000" stroke="#000000" points="182.1788,-141.2262 174.3448,-134.0931 176.0207,-144.5546 182.1788,-141.2262"/>
<text text-anchor="start" x="202" y="-166" font-family="Helvetica,sans-Serif" font-size="10.00" fill="#000000">delay_counter &gt; 20 &#160;&#160;</text>
<text text-anchor="start" x="202" y="-154" font-family="Helvetica,sans-Serif" font-size="10.00" fill="#000000">not (clear_mode = &#39;0&#39;) &#160;&#160;</text>
</g>
<!-- DONE -->
<g id="node8" class="node state regular">
<title>DONE</title>
<polygon fill="#ffffff" fill-opacity="0.003922" stroke="transparent" stroke-width="2" points="510,-52 454,-52 454,-16 510,-16 510,-52"/>
<text text-anchor="start" x="464.6684" y="-30.2" font-family="Helvetica,sans-Serif" font-size="12.00" fill="#000000">DONE</text>
<path fill="none" stroke="#000000" stroke-width="2" d="M466.3333,-17C466.3333,-17 497.6667,-17 497.6667,-17 503.3333,-17 509,-22.6667 509,-28.3333 509,-28.3333 509,-39.6667 509,-39.6667 509,-45.3333 503.3333,-51 497.6667,-51 497.6667,-51 466.3333,-51 466.3333,-51 460.6667,-51 455,-45.3333 455,-39.6667 455,-39.6667 455,-28.3333 455,-28.3333 455,-22.6667 460.6667,-17 466.3333,-17"/>
</g>
<!-- READ_FIFO&#45;&gt;DONE -->
<g id="edge7" class="edge transition">
<title>READ_FIFO&#45;&gt;DONE</title>
<path fill="none" stroke="#000000" d="M359.2951,-97.8079C361.9266,-88.0771 366.5639,-76.5731 374.623,-69 393.457,-51.3018 421.3632,-42.5499 444.0061,-38.2236"/>
<polygon fill="#000000" stroke="#000000" points="444.7136,-41.6537 453.9877,-36.5311 443.5432,-34.7522 444.7136,-41.6537"/>
<text text-anchor="start" x="374" y="-72" font-family="Helvetica,sans-Serif" font-size="10.00" fill="#000000">unsigned(valid_fifo_data) &gt;= WORDS_TO_SEND &#160;&#160;</text>
</g>
<!-- CONTINUE_CLEAR -->
<g id="node7" class="node state regular">
<title>CONTINUE_CLEAR</title>
<polygon fill="#ffffff" fill-opacity="0.003922" stroke="transparent" stroke-width="2" points="147.5,-52 16.5,-52 16.5,-16 147.5,-16 147.5,-52"/>
<text text-anchor="start" x="27.8364" y="-30.2" font-family="Helvetica,sans-Serif" font-size="12.00" fill="#000000">CONTINUE_CLEAR</text>
<path fill="none" stroke="#000000" stroke-width="2" d="M28.8333,-17C28.8333,-17 135.1667,-17 135.1667,-17 140.8333,-17 146.5,-22.6667 146.5,-28.3333 146.5,-28.3333 146.5,-39.6667 146.5,-39.6667 146.5,-45.3333 140.8333,-51 135.1667,-51 135.1667,-51 28.8333,-51 28.8333,-51 23.1667,-51 17.5,-45.3333 17.5,-39.6667 17.5,-39.6667 17.5,-28.3333 17.5,-28.3333 17.5,-22.6667 23.1667,-17 28.8333,-17"/>
</g>
<!-- CLEAR_MEM&#45;&gt;CONTINUE_CLEAR -->
<g id="edge8" class="edge transition">
<title>CLEAR_MEM&#45;&gt;CONTINUE_CLEAR</title>
<path fill="none" stroke="#000000" d="M123.9698,-97.9095C116.1937,-93.2184 108.6396,-87.5911 102.623,-81 97.6181,-75.5171 93.6865,-68.6251 90.6598,-61.8219"/>
<polygon fill="#000000" stroke="#000000" points="93.7562,-60.1296 86.8531,-52.0923 87.2373,-62.6801 93.7562,-60.1296"/>
<text text-anchor="start" x="102" y="-72" font-family="Helvetica,sans-Serif" font-size="10.00" fill="#000000">unsigned(valid_fifo_data) &gt;= WORDS_TO_SEND &#160;&#160;</text>
</g>
<!-- CONTINUE_CLEAR&#45;&gt;IDLE -->
<g id="edge9" class="edge transition">
<title>CONTINUE_CLEAR&#45;&gt;IDLE</title>
<path fill="none" stroke="#000000" d="M73.1664,-52.0493C57.5347,-86.1732 27.6156,-162.5964 38.37,-228 48.6462,-290.4954 49.1872,-310.0912 84,-363 87.6274,-368.5129 92.1776,-373.7496 96.9953,-378.5232"/>
<polygon fill="#000000" stroke="#000000" points="94.9664,-381.4131 104.6919,-385.6163 99.7103,-376.2656 94.9664,-381.4131"/>
<text text-anchor="start" x="38" y="-207" font-family="Helvetica,sans-Serif" font-size="10.00" fill="#000000">reset_pointer_address_r2 = &#39;1&#39; &#160;&#160;</text>
</g>
<!-- CONTINUE_CLEAR&#45;&gt;ASSERT_CMD -->
<g id="edge10" class="edge transition">
<title>CONTINUE_CLEAR&#45;&gt;ASSERT_CMD</title>
<path fill="none" stroke="#000000" d="M77.797,-52.3129C72.1281,-82.1626 66.0072,-141.3461 97.058,-175 124.6449,-204.8996 155.1517,-166.6877 187,-192 209.2766,-209.705 220.5547,-241.0017 226.0747,-263.8794"/>
<polygon fill="#000000" stroke="#000000" points="222.6706,-264.6969 228.2245,-273.7193 229.5093,-263.2027 222.6706,-264.6969"/>
<text text-anchor="start" x="97" y="-160" font-family="Helvetica,sans-Serif" font-size="10.00" fill="#000000">clear_mode = &#39;1&#39; &#160;&#160;</text>
</g>
<!-- CONTINUE_CLEAR&#45;&gt;CONTINUE_CLEAR -->
<g id="edge11" class="edge transition">
<title>CONTINUE_CLEAR&#45;&gt;CONTINUE_CLEAR</title>
<path fill="none" stroke="#000000" d="M147.6338,-38.6581C160.4201,-38.1171 169.5,-36.5645 169.5,-34 169.5,-32.1969 165.0111,-30.8939 157.901,-30.0912"/>
<polygon fill="#000000" stroke="#000000" points="157.8621,-26.5791 147.6338,-29.3419 157.3525,-33.5606 157.8621,-26.5791"/>
<text text-anchor="start" x="169.5" y="-37" font-family="Helvetica,sans-Serif" font-size="10.00" fill="#000000">not (reset_pointer_address_r2 = &#39;1&#39;) &#160;&#160;</text>
<text text-anchor="start" x="169.5" y="-25" font-family="Helvetica,sans-Serif" font-size="10.00" fill="#000000">not (clear_mode = &#39;1&#39;) &#160;&#160;</text>
</g>
<!-- DONE&#45;&gt;IDLE -->
<g id="edge12" class="edge transition">
<title>DONE&#45;&gt;IDLE</title>
<path fill="none" stroke="#000000" d="M510.1845,-38.1722C542.5215,-43.5963 592.5707,-54.1618 604,-69 642.2494,-118.6576 607,-147.3192 607,-210 607,-292 607,-292 607,-292 607,-327.3801 600.2579,-343.1071 571,-363 538.0285,-385.4178 269.0043,-398.4231 168.0678,-402.5524"/>
<polygon fill="#000000" stroke="#000000" points="167.8522,-399.0581 158.0011,-402.9575 168.1337,-406.0525 167.8522,-399.0581"/>
<text text-anchor="middle" x="608.3895" y="-207" font-family="Helvetica,sans-Serif" font-size="10.00" fill="#000000"> </text>
</g>
</g>
</svg>
